solid Case v2
facet normal -1.0 -2.2822444795651768e-18 -1.600936366586241e-18
  outer loop
    vertex -1.3284991239849004e-06 1.6000000000011627 37.09999999469375
    vertex 2.467164466639852e-17 52.099999999999994 1.5999999999999974
    vertex -1.3285278006610032e-06 1.5999999999911751 1.5999999946937715
  endloop
endfacet
facet normal -1.0 -2.2822444795651768e-18 -1.600936366586241e-18
  outer loop
    vertex 2.467164466639852e-17 52.099999999999994 1.5999999999999974
    vertex -1.3284991239849004e-06 1.6000000000011627 37.09999999469375
    vertex 2.8676700774490593e-11 52.10000000000999 37.09999999999998
  endloop
endfacet
facet normal 1.328527800685675e-05 -0.9999999999117495 5.3062285119729355e-08
  outer loop
    vertex 2.5003089523570967 1.5999999999911738 27.748023333010273
    vertex -1.3285278006610032e-06 1.5999999999911751 1.5999999946937715
    vertex 2.5003089523570967 1.5999999999911738 1.5999999946937702
  endloop
endfacet
facet normal 1.328527800685675e-05 -0.9999999999117495 5.3062285119729355e-08
  outer loop
    vertex -1.3285278006610032e-06 1.5999999999911751 1.5999999946937715
    vertex 2.5003089523570967 1.5999999999911738 27.748023333010273
    vertex -1.3284991239849004e-06 1.6000000000011627 37.09999999469375
  endloop
endfacet
facet normal 1.328527800685675e-05 -0.9999999999117495 5.3062285119729355e-08
  outer loop
    vertex -1.3284991239849004e-06 1.6000000000011627 37.09999999469375
    vertex 2.5003089523570967 1.5999999999911738 27.748023333010273
    vertex 5.99999867147216 1.600119464274875 27.74807487325542
  endloop
endfacet
facet normal 1.328527800685675e-05 -0.9999999999117495 5.3062285119729355e-08
  outer loop
    vertex -1.3284991239849004e-06 1.6000000000011627 37.09999999469375
    vertex 5.99999867147216 1.600119464274875 27.74807487325542
    vertex 5.999998671500839 1.5999997933272998 37.09999966395808
  endloop
endfacet
facet normal -2.4671644666398517e-16 -3.997733548976925e-17 -1.0
  outer loop
    vertex 2.467164466639852e-17 52.099999999999994 1.5999999999999974
    vertex 2.5003089523570967 1.5999999999911738 1.5999999946937702
    vertex -1.3285278006610032e-06 1.5999999999911751 1.5999999946937715
  endloop
endfacet
facet normal -2.4671644666398517e-16 -3.997733548976925e-17 -1.0
  outer loop
    vertex 2.5003089523570967 1.5999999999911738 1.5999999946937702
    vertex 2.467164466639852e-17 52.099999999999994 1.5999999999999974
    vertex 2.500310280884898 52.099999999999994 1.5999999999999974
  endloop
endfacet
facet normal -1.438469307882458e-05 0.9999999998961591 -8.734210792304866e-07
  outer loop
    vertex 2.5003117193511293 50.600079287355044 3.1490827950722253
    vertex 6.00000143846927 50.600122225833736 27.748024172894297
    vertex 6.000001438466193 50.60007908068118 3.1490824643365505
  endloop
endfacet
facet normal -1.438469307882458e-05 0.9999999998961591 -8.734210792304866e-07
  outer loop
    vertex 6.00000143846927 50.600122225833736 27.748024172894297
    vertex 2.5003117193511293 50.600079287355044 3.1490827950722253
    vertex 2.5003117193542055 50.600079287354944 27.748024503629974
  endloop
endfacet
facet normal 1.0340282604861555e-11 -7.186959012424406e-07 -0.9999999999997418
  outer loop
    vertex 2.5006094663183336 52.099999999999994 27.748023338316504
    vertex 6.00000143846927 50.600122225833736 27.748024172894297
    vertex 2.5003117193542055 50.600079287354944 27.748024503629974
  endloop
endfacet
facet normal 1.0340282604861555e-11 -7.186959012424406e-07 -0.9999999999997418
  outer loop
    vertex 6.00000143846927 50.600122225833736 27.748024172894297
    vertex 2.5006094663183336 52.099999999999994 27.748023338316504
    vertex 5.999999999999962 52.09999979332613 27.74802300758083
  endloop
endfacet
facet normal 3.0761034998043855e-11 -9.671269757835775e-13 -1.0
  outer loop
    vertex 2.5003117193511293 50.600079287355044 3.1490827950722253
    vertex 5.999990820483438 3.1000261492152323 3.1490818197189836
    vertex 2.5003011013683727 3.1000263558890953 3.1490821503623945
  endloop
endfacet
facet normal 3.0761034998043855e-11 -9.671269757835775e-13 -1.0
  outer loop
    vertex 5.999990820483438 3.1000261492152323 3.1490818197189836
    vertex 2.5003117193511293 50.600079287355044 3.1490827950722253
    vertex 6.000001438466193 50.60007908068118 3.1490824643365505
  endloop
endfacet
facet normal 9.179513448587397e-05 -0.9999999957712937 5.5736772270063775e-06
  outer loop
    vertex 5.999990820486513 3.1003014776552065 27.748075651944035
    vertex 2.5003011013683727 3.1000263558890953 3.1490821503623945
    vertex 5.999990820483438 3.1000261492152323 3.1490818197189836
  endloop
endfacet
facet normal 9.179513448587397e-05 -0.9999999957712937 5.5736772270063775e-06
  outer loop
    vertex 2.5003011013683727 3.1000263558890953 3.1490821503623945
    vertex 5.999990820486513 3.1003014776552065 27.748075651944035
    vertex 2.500301101371449 3.1000263558889984 27.74807598267971
  endloop
endfacet
facet normal 0.9999999999934748 -2.256455896961928e-06 -2.8211846559205043e-06
  outer loop
    vertex 2.5003089523570967 1.5999999999911738 1.5999999946937702
    vertex 2.5003011013683727 3.1000263558890953 3.1490821503623945
    vertex 2.5003089523570967 1.5999999999911738 27.748023333010273
  endloop
endfacet
facet normal 0.9999999999934748 -2.256455896961928e-06 -2.8211846559205043e-06
  outer loop
    vertex 2.5003011013683727 3.1000263558890953 3.1490821503623945
    vertex 2.5003089523570967 1.5999999999911738 1.5999999946937702
    vertex 2.500310280884898 52.099999999999994 1.5999999999999974
  endloop
endfacet
facet normal 0.9999999999934748 -2.256455896961928e-06 -2.8211846559205043e-06
  outer loop
    vertex 2.5003089523570967 1.5999999999911738 27.748023333010273
    vertex 2.5003011013683727 3.1000263558890953 3.1490821503623945
    vertex 2.500301101371449 3.1000263558889984 27.74807598267971
  endloop
endfacet
facet normal 0.9999999999934748 -2.256455896961928e-06 -2.8211846559205043e-06
  outer loop
    vertex 2.5003011013683727 3.1000263558890953 3.1490821503623945
    vertex 2.500310280884898 52.099999999999994 1.5999999999999974
    vertex 2.5003117193511293 50.600079287355044 3.1490827950722253
  endloop
endfacet
facet normal 0.9999999999934748 -2.256455896961928e-06 -2.8211846559205043e-06
  outer loop
    vertex 2.5003117193511293 50.600079287355044 3.1490827950722253
    vertex 2.5006094663183336 52.099999999999994 27.748023338316504
    vertex 2.5003117193542055 50.600079287354944 27.748024503629974
  endloop
endfacet
facet normal 0.9999999999934748 -2.256455896961928e-06 -2.8211846559205043e-06
  outer loop
    vertex 2.5006094663183336 52.099999999999994 27.748023338316504
    vertex 2.5003117193511293 50.600079287355044 3.1490827950722253
    vertex 2.500310280884898 52.099999999999994 1.5999999999999974
  endloop
endfacet
facet normal 1.7291510669283865e-05 1.8175334164034576e-05 -0.9999999996853306
  outer loop
    vertex 5.999990820486513 3.1003014776552065 27.748075651944035
    vertex 2.5003089523570967 1.5999999999911738 27.748023333010273
    vertex 2.500301101371449 3.1000263558889984 27.74807598267971
  endloop
endfacet
facet normal 1.7291510669283865e-05 1.8175334164034576e-05 -0.9999999996853306
  outer loop
    vertex 2.5003089523570967 1.5999999999911738 27.748023333010273
    vertex 5.999990820486513 3.1003014776552065 27.748075651944035
    vertex 5.99999867147216 1.600119464274875 27.74807487325542
  endloop
endfacet
facet normal 0.0 1.0 0.0
  outer loop
    vertex 2.8676700774490593e-11 52.10000000000999 37.09999999999998
    vertex 2.500310280884898 52.099999999999994 1.5999999999999974
    vertex 2.467164466639852e-17 52.099999999999994 1.5999999999999974
  endloop
endfacet
facet normal 0.0 1.0 0.0
  outer loop
    vertex 2.500310280884898 52.099999999999994 1.5999999999999974
    vertex 2.8676700774490593e-11 52.10000000000999 37.09999999999998
    vertex 2.5006094663183336 52.099999999999994 27.748023338316504
  endloop
endfacet
facet normal 0.0 1.0 0.0
  outer loop
    vertex 2.5006094663183336 52.099999999999994 27.748023338316504
    vertex 2.8676700774490593e-11 52.10000000000999 37.09999999999998
    vertex 6.000000000028638 52.099999793336124 37.09999966926431
  endloop
endfacet
facet normal 0.0 1.0 0.0
  outer loop
    vertex 6.000000000028638 52.099999793336124 37.09999966926431
    vertex 5.999999999999962 52.09999979332613 27.74802300758083
    vertex 2.5006094663183336 52.099999999999994 27.748023338316504
  endloop
endfacet
facet normal 3.605983296329381e-16 1.0 2.376279054084113e-12
  outer loop
    vertex 2.309957993738464 3.10030147765901 35.500126016751736
    vertex 5.999999578759464 3.100301477655207 37.099999832184146
    vertex 5.999993291152732 3.100301477659008 35.49989639826072
  endloop
endfacet
facet normal 3.605983296329381e-16 1.0 2.376279054084113e-12
  outer loop
    vertex 5.999999578759464 3.100301477655207 37.099999832184146
    vertex 2.309957993738464 3.10030147765901 35.500126016751736
    vertex 2.31028307798482 3.100301477655207 37.09999999999998
  endloop
endfacet
facet normal 0.9999999976975047 3.6297079705896002e-06 -6.776293858634838e-05
  outer loop
    vertex 2.309957993738464 3.10030147765901 35.500126016751736
    vertex 2.3099580351548936 50.600122225833736 37.100000000039884
    vertex 2.31028307798482 3.100301477655207 37.09999999999998
  endloop
endfacet
facet normal 0.9999999976975047 3.6297079705896002e-06 -6.776293858634838e-05
  outer loop
    vertex 2.3099580351548936 50.600122225833736 37.100000000039884
    vertex 2.309957993738464 3.10030147765901 35.500126016751736
    vertex 2.309957993738464 50.600122225833736 35.500126016751736
  endloop
endfacet
facet normal 4.7365687606468594e-08 -1.384623235697143e-10 0.9999999999999989
  outer loop
    vertex -1.3284991239849004e-06 1.6000000000011627 37.09999999469375
    vertex 2.31028307798482 3.100301477655207 37.09999999999998
    vertex 2.8676700774490593e-11 52.10000000000999 37.09999999999998
  endloop
endfacet
facet normal 4.7365687606468594e-08 -1.384623235697143e-10 0.9999999999999989
  outer loop
    vertex 2.31028307798482 3.100301477655207 37.09999999999998
    vertex -1.3284991239849004e-06 1.6000000000011627 37.09999999469375
    vertex 5.999998671500839 1.5999997933272998 37.09999966395808
  endloop
endfacet
facet normal 4.7365687606468594e-08 -1.384623235697143e-10 0.9999999999999989
  outer loop
    vertex 2.8676700774490593e-11 52.10000000000999 37.09999999999998
    vertex 2.31028307798482 3.100301477655207 37.09999999999998
    vertex 2.3099580351548936 50.600122225833736 37.100000000039884
  endloop
endfacet
facet normal 4.7365687606468594e-08 -1.384623235697143e-10 0.9999999999999989
  outer loop
    vertex 2.31028307798482 3.100301477655207 37.09999999999998
    vertex 5.999998671500839 1.5999997933272998 37.09999966395808
    vertex 5.999999578759464 3.100301477655207 37.099999832184146
  endloop
endfacet
facet normal 4.7365687606468594e-08 -1.384623235697143e-10 0.9999999999999989
  outer loop
    vertex 2.3099580351548936 50.600122225833736 37.100000000039884
    vertex 6.000000000028638 52.099999793336124 37.09999966926431
    vertex 2.8676700774490593e-11 52.10000000000999 37.09999999999998
  endloop
endfacet
facet normal 4.7365687606468594e-08 -1.384623235697143e-10 0.9999999999999989
  outer loop
    vertex 6.000000000028638 52.099999793336124 37.09999966926431
    vertex 2.3099580351548936 50.600122225833736 37.100000000039884
    vertex 6.0000000032316185 50.600122225833736 37.099999834653644
  endloop
endfacet
facet normal 0.9999999999999769 -1.5778445036603462e-07 -1.4707479635604444e-07
  outer loop
    vertex 6.000001438466193 50.60007908068118 3.1490824643365505
    vertex 5.999990820486513 3.1003014776552065 27.748075651944035
    vertex 5.999990820483438 3.1000261492152323 3.1490818197189836
  endloop
endfacet
facet normal 0.9999999999999769 -1.5778445036603462e-07 -1.4707479635604444e-07
  outer loop
    vertex 5.999990820486513 3.1003014776552065 27.748075651944035
    vertex 6.000001438466193 50.60007908068118 3.1490824643365505
    vertex 5.999993291152732 3.100301477659008 35.49989639826072
  endloop
endfacet
facet normal 0.9999999999999769 -1.5778445036603462e-07 -1.4707479635604444e-07
  outer loop
    vertex 5.999990820486513 3.1003014776552065 27.748075651944035
    vertex 5.999993291152732 3.100301477659008 35.49989639826072
    vertex 5.999999578759464 3.100301477655207 37.099999832184146
  endloop
endfacet
facet normal 0.9999999999999769 -1.5778445036603462e-07 -1.4707479635604444e-07
  outer loop
    vertex 5.999993291152732 3.100301477659008 35.49989639826072
    vertex 6.000001438466193 50.60007908068118 3.1490824643365505
    vertex 6.000015727517038 50.600122225833736 35.499896411248564
  endloop
endfacet
facet normal 0.9999999999999769 -1.5778445036603462e-07 -1.4707479635604444e-07
  outer loop
    vertex 6.000015727517038 50.600122225833736 35.499896411248564
    vertex 6.000001438466193 50.60007908068118 3.1490824643365505
    vertex 6.00000143846927 50.600122225833736 27.748024172894297
  endloop
endfacet
facet normal 0.9999999999999769 -1.5778445036603462e-07 -1.4707479635604444e-07
  outer loop
    vertex 6.000015727517038 50.600122225833736 35.499896411248564
    vertex 6.00000143846927 50.600122225833736 27.748024172894297
    vertex 5.999999999999962 52.09999979332613 27.74802300758083
  endloop
endfacet
facet normal 0.9999999999999769 -1.5778445036603462e-07 -1.4707479635604444e-07
  outer loop
    vertex 6.000015727517038 50.600122225833736 35.499896411248564
    vertex 5.999999999999962 52.09999979332613 27.74802300758083
    vertex 6.0000000032316185 50.600122225833736 37.099999834653644
  endloop
endfacet
facet normal 0.9999999999999769 -1.5778445036603462e-07 -1.4707479635604444e-07
  outer loop
    vertex 6.0000000032316185 50.600122225833736 37.099999834653644
    vertex 5.999999999999962 52.09999979332613 27.74802300758083
    vertex 6.000000000028638 52.099999793336124 37.09999966926431
  endloop
endfacet
facet normal 0.9999999999999769 -1.5778445036603462e-07 -1.4707479635604444e-07
  outer loop
    vertex 5.99999867147216 1.600119464274875 27.74807487325542
    vertex 5.999999578759464 3.100301477655207 37.099999832184146
    vertex 5.999998671500839 1.5999997933272998 37.09999966395808
  endloop
endfacet
facet normal 0.9999999999999769 -1.5778445036603462e-07 -1.4707479635604444e-07
  outer loop
    vertex 5.999999578759464 3.100301477655207 37.099999832184146
    vertex 5.99999867147216 1.600119464274875 27.74807487325542
    vertex 5.999990820486513 3.1003014776552065 27.748075651944035
  endloop
endfacet
facet normal 6.222460973852999e-05 -1.4989486175648644e-10 0.999999998064049
  outer loop
    vertex 5.999993291152732 3.100301477659008 35.49989639826072
    vertex 2.309957993738464 50.600122225833736 35.500126016751736
    vertex 2.309957993738464 3.10030147765901 35.500126016751736
  endloop
endfacet
facet normal 6.222460973852999e-05 -1.4989486175648644e-10 0.999999998064049
  outer loop
    vertex 2.309957993738464 50.600122225833736 35.500126016751736
    vertex 5.999993291152732 3.100301477659008 35.49989639826072
    vertex 6.000015727517038 50.600122225833736 35.499896411248564
  endloop
endfacet
facet normal 0.0 -1.0 0.0
  outer loop
    vertex 6.0000000032316185 50.600122225833736 37.099999834653644
    vertex 2.309957993738464 50.600122225833736 35.500126016751736
    vertex 6.000015727517038 50.600122225833736 35.499896411248564
  endloop
endfacet
facet normal 0.0 -1.0 0.0
  outer loop
    vertex 2.309957993738464 50.600122225833736 35.500126016751736
    vertex 6.0000000032316185 50.600122225833736 37.099999834653644
    vertex 2.3099580351548936 50.600122225833736 37.100000000039884
  endloop
endfacet
endsolid Case v2
