solid Case v2
facet normal 0.0 1.0 0.0
  outer loop
    vertex -4.000000000000005 58.19999999999998 -7.286735097022977e-17
    vertex 19.999999999999996 58.19999999999998 38.69999999999999
    vertex 20.0 58.19999999999998 1.577583841267272e-14
  endloop
endfacet
facet normal 0.0 1.0 0.0
  outer loop
    vertex 19.999999999999996 58.19999999999998 38.69999999999999
    vertex -4.000000000000005 58.19999999999998 -7.286735097022977e-17
    vertex -4.000000000000005 58.19999999999998 38.69999999999999
  endloop
endfacet
facet normal -1.4099832412739488e-16 -5.2513342319327715e-17 1.0
  outer loop
    vertex 19.999999999999996 58.19999999999998 38.69999999999999
    vertex -4.000000000000005 5.25133423193278e-17 38.69999999999998
    vertex 19.999999999999996 0.0 38.69999999999999
  endloop
endfacet
facet normal -1.4099832412739488e-16 -5.2513342319327715e-17 1.0
  outer loop
    vertex -4.000000000000005 5.25133423193278e-17 38.69999999999998
    vertex 19.999999999999996 58.19999999999998 38.69999999999999
    vertex -4.000000000000005 58.19999999999998 38.69999999999999
  endloop
endfacet
facet normal 0.0 -1.0 0.0
  outer loop
    vertex 18.60000000000001 44.10000000000005 33.099999999999966
    vertex 20.00000000000001 44.10000000000005 6.599999999999993
    vertex 20.00000000000001 44.10000000000005 33.09999999999999
  endloop
endfacet
facet normal 0.0 -1.0 0.0
  outer loop
    vertex 20.00000000000001 44.10000000000005 6.599999999999993
    vertex 18.60000000000001 44.10000000000005 33.099999999999966
    vertex 18.600000000000012 44.10000000000005 6.5999999999999925
  endloop
endfacet
facet normal -1.0 1.3128335579831929e-17 -1.8216837742557484e-17
  outer loop
    vertex -4.000000000000005 5.25133423193278e-17 -7.286735097022977e-17
    vertex -4.000000000000005 1.5 1.5
    vertex -4.000000000000005 58.19999999999998 -7.286735097022977e-17
  endloop
endfacet
facet normal -1.0 1.3128335579831929e-17 -1.8216837742557484e-17
  outer loop
    vertex -4.000000000000005 1.5 1.5
    vertex -4.000000000000005 5.25133423193278e-17 -7.286735097022977e-17
    vertex -4.000000000000005 5.25133423193278e-17 38.69999999999998
  endloop
endfacet
facet normal -1.0 1.3128335579831929e-17 -1.8216837742557484e-17
  outer loop
    vertex -4.000000000000005 1.5 1.5
    vertex -4.000000000000005 5.25133423193278e-17 38.69999999999998
    vertex -4.000000000000005 1.5 37.199999999999974
  endloop
endfacet
facet normal -1.0 1.3128335579831929e-17 -1.8216837742557484e-17
  outer loop
    vertex -4.000000000000005 1.5 37.199999999999974
    vertex -4.000000000000005 5.25133423193278e-17 38.69999999999998
    vertex -4.000000000000005 52.199999999999996 37.19999999999998
  endloop
endfacet
facet normal -1.0 1.3128335579831929e-17 -1.8216837742557484e-17
  outer loop
    vertex -4.000000000000005 58.19999999999998 -7.286735097022977e-17
    vertex -4.000000000000005 52.199999999999996 1.5
    vertex -4.000000000000005 58.19999999999998 38.69999999999999
  endloop
endfacet
facet normal -1.0 1.3128335579831929e-17 -1.8216837742557484e-17
  outer loop
    vertex -4.000000000000005 52.199999999999996 1.5
    vertex -4.000000000000005 58.19999999999998 -7.286735097022977e-17
    vertex -4.000000000000005 1.5 1.5
  endloop
endfacet
facet normal -1.0 1.3128335579831929e-17 -1.8216837742557484e-17
  outer loop
    vertex -4.000000000000005 58.19999999999998 38.69999999999999
    vertex -4.000000000000005 52.199999999999996 1.5
    vertex -4.000000000000005 52.199999999999996 37.19999999999998
  endloop
endfacet
facet normal -1.0 1.3128335579831929e-17 -1.8216837742557484e-17
  outer loop
    vertex -4.000000000000005 58.19999999999998 38.69999999999999
    vertex -4.000000000000005 52.199999999999996 37.19999999999998
    vertex -4.000000000000005 5.25133423193278e-17 38.69999999999998
  endloop
endfacet
facet normal 8.326672684688674e-16 0.0 -1.0
  outer loop
    vertex -4.000000000000005 5.25133423193278e-17 -7.286735097022977e-17
    vertex 20.0 58.19999999999998 1.577583841267272e-14
    vertex 20.0 0.0 1.577583841267272e-14
  endloop
endfacet
facet normal 8.326672684688674e-16 0.0 -1.0
  outer loop
    vertex 20.0 58.19999999999998 1.577583841267272e-14
    vertex -4.000000000000005 5.25133423193278e-17 -7.286735097022977e-17
    vertex -4.000000000000005 58.19999999999998 -7.286735097022977e-17
  endloop
endfacet
facet normal 0.0 1.0 0.0
  outer loop
    vertex 18.6 14.100000000000048 6.599999999999996
    vertex 20.0 14.100000000000048 33.099999999999994
    vertex 20.0 14.100000000000048 6.599999999999996
  endloop
endfacet
facet normal 0.0 1.0 0.0
  outer loop
    vertex 20.0 14.100000000000048 33.099999999999994
    vertex 18.6 14.100000000000048 6.599999999999996
    vertex 18.6 14.100000000000048 33.09999999999999
  endloop
endfacet
facet normal 0.0 9.399888275159658e-17 1.0
  outer loop
    vertex 20.00000000000001 44.10000000000005 6.599999999999993
    vertex 18.6 14.100000000000048 6.599999999999996
    vertex 20.0 14.100000000000048 6.599999999999996
  endloop
endfacet
facet normal 0.0 9.399888275159658e-17 1.0
  outer loop
    vertex 18.6 14.100000000000048 6.599999999999996
    vertex 20.00000000000001 44.10000000000005 6.599999999999993
    vertex 18.600000000000012 44.10000000000005 6.5999999999999925
  endloop
endfacet
facet normal 1.0 0.0 0.0
  outer loop
    vertex 20.0 58.19999999999998 1.577583841267272e-14
    vertex 20.00000000000001 44.10000000000005 6.599999999999993
    vertex 20.0 0.0 1.577583841267272e-14
  endloop
endfacet
facet normal 1.0 0.0 0.0
  outer loop
    vertex 20.00000000000001 44.10000000000005 6.599999999999993
    vertex 20.0 58.19999999999998 1.577583841267272e-14
    vertex 19.999999999999996 58.19999999999998 38.69999999999999
  endloop
endfacet
facet normal 1.0 0.0 0.0
  outer loop
    vertex 20.00000000000001 44.10000000000005 6.599999999999993
    vertex 19.999999999999996 58.19999999999998 38.69999999999999
    vertex 20.00000000000001 44.10000000000005 33.09999999999999
  endloop
endfacet
facet normal 1.0 0.0 0.0
  outer loop
    vertex 20.00000000000001 44.10000000000005 33.09999999999999
    vertex 19.999999999999996 58.19999999999998 38.69999999999999
    vertex 20.0 14.100000000000048 33.099999999999994
  endloop
endfacet
facet normal 1.0 0.0 0.0
  outer loop
    vertex 20.0 0.0 1.577583841267272e-14
    vertex 20.0 14.100000000000048 6.599999999999996
    vertex 19.999999999999996 0.0 38.69999999999999
  endloop
endfacet
facet normal 1.0 0.0 0.0
  outer loop
    vertex 20.0 14.100000000000048 6.599999999999996
    vertex 20.0 0.0 1.577583841267272e-14
    vertex 20.00000000000001 44.10000000000005 6.599999999999993
  endloop
endfacet
facet normal 1.0 0.0 0.0
  outer loop
    vertex 19.999999999999996 0.0 38.69999999999999
    vertex 20.0 14.100000000000048 6.599999999999996
    vertex 20.0 14.100000000000048 33.099999999999994
  endloop
endfacet
facet normal 1.0 0.0 0.0
  outer loop
    vertex 19.999999999999996 0.0 38.69999999999999
    vertex 20.0 14.100000000000048 33.099999999999994
    vertex 19.999999999999996 58.19999999999998 38.69999999999999
  endloop
endfacet
facet normal 0.0 -1.8799776550319315e-16 -1.0
  outer loop
    vertex 18.60000000000001 44.10000000000005 33.099999999999966
    vertex 20.0 14.100000000000048 33.099999999999994
    vertex 18.6 14.100000000000048 33.09999999999999
  endloop
endfacet
facet normal 0.0 -1.8799776550319315e-16 -1.0
  outer loop
    vertex 20.0 14.100000000000048 33.099999999999994
    vertex 18.60000000000001 44.10000000000005 33.099999999999966
    vertex 20.00000000000001 44.10000000000005 33.09999999999999
  endloop
endfacet
facet normal -1.0 -5.639932965095793e-16 -4.447896660170189e-17
  outer loop
    vertex 19.59999999999995 46.19999999999999 30.099999999999945
    vertex 19.599999999999998 48.7 9.599999999999987
    vertex 19.6 46.2 9.599999999999987
  endloop
endfacet
facet normal -1.0 -5.639932965095793e-16 -4.447896660170189e-17
  outer loop
    vertex 19.599999999999998 48.7 9.599999999999987
    vertex 19.59999999999995 46.19999999999999 30.099999999999945
    vertex 19.59999999999995 48.69999999999999 30.099999999999945
  endloop
endfacet
facet normal 0.0 1.0 0.0
  outer loop
    vertex 18.6 46.2 9.599999999999987
    vertex 19.59999999999995 46.19999999999999 30.099999999999945
    vertex 19.6 46.2 9.599999999999987
  endloop
endfacet
facet normal 0.0 1.0 0.0
  outer loop
    vertex 19.59999999999995 46.19999999999999 30.099999999999945
    vertex 18.6 46.2 9.599999999999987
    vertex 18.59999999999995 46.19999999999999 30.099999999999945
  endloop
endfacet
facet normal 5.639932965095792e-16 -1.0 0.0
  outer loop
    vertex 19.59999999999995 48.69999999999999 30.099999999999945
    vertex 18.599999999999998 48.7 9.599999999999987
    vertex 19.599999999999998 48.7 9.599999999999987
  endloop
endfacet
facet normal 5.639932965095792e-16 -1.0 0.0
  outer loop
    vertex 18.599999999999998 48.7 9.599999999999987
    vertex 19.59999999999995 48.69999999999999 30.099999999999945
    vertex 18.59999999999995 48.69999999999999 30.099999999999945
  endloop
endfacet
facet normal -6.897983054467915e-06 -0.9999999999746831 1.7468421586890304e-06
  outer loop
    vertex 14.349999769624876 50.70000361700643 35.60000000006569
    vertex 14.34999999999999 50.7 27.699999999692015
    vertex 18.599999769624883 50.70000361700643 35.600000000065656
  endloop
endfacet
facet normal -6.897983054467915e-06 -0.9999999999746831 1.7468421586890304e-06
  outer loop
    vertex 18.6 50.7 3.0000000000000133
    vertex 14.34999999999999 50.7 27.699999999692015
    vertex -1.4995312814561481 50.70002848115672 3.0530397538308875
  endloop
endfacet
facet normal -6.897983054467915e-06 -0.9999999999746831 1.7468421586890304e-06
  outer loop
    vertex 14.34999999999999 50.7 27.699999999692015
    vertex 18.6 50.7 3.0000000000000133
    vertex 18.599999769624883 50.70000361700643 35.600000000065656
  endloop
endfacet
facet normal -6.897983054467915e-06 -0.9999999999746831 1.7468421586890304e-06
  outer loop
    vertex -1.4995312814561481 50.70002848115672 3.0530397538308875
    vertex 14.34999999999999 50.7 27.699999999692015
    vertex -1.4986145830366648 50.700205971954105 27.753039753522906
  endloop
endfacet
facet normal 0.003346582102621866 5.113010831966166e-07 0.9999944001783055
  outer loop
    vertex 14.34999999999999 52.199999999999996 27.699999999692015
    vertex -1.4986145830366648 50.700205971954105 27.753039753522906
    vertex 14.34999999999999 50.7 27.699999999692015
  endloop
endfacet
facet normal 0.003346582102621866 5.113010831966166e-07 0.9999944001783055
  outer loop
    vertex -1.4986145830366648 50.700205971954105 27.753039753522906
    vertex 14.34999999999999 52.199999999999996 27.699999999692015
    vertex -1.4990729322464051 52.20002848115671 27.753039753522906
  endloop
endfacet
facet normal -1.41898557035629e-14 -3.405094445671787e-15 -1.0
  outer loop
    vertex 18.59999999999995 48.69999999999999 30.099999999999945
    vertex 19.59999999999995 46.19999999999999 30.099999999999945
    vertex 18.59999999999995 46.19999999999999 30.099999999999945
  endloop
endfacet
facet normal -1.41898557035629e-14 -3.405094445671787e-15 -1.0
  outer loop
    vertex 19.59999999999995 46.19999999999999 30.099999999999945
    vertex 18.59999999999995 48.69999999999999 30.099999999999945
    vertex 19.59999999999995 48.69999999999999 30.099999999999945
  endloop
endfacet
facet normal 0.002638846071405487 -2.9211526922438326e-20 0.9999965182396444
  outer loop
    vertex 18.6 50.7 3.0000000000000133
    vertex -1.4995312814561481 3.0000284811567144 3.0530397538308875
    vertex 18.6 3.0 3.0000000000000133
  endloop
endfacet
facet normal 0.002638846071405487 -2.9211526922438326e-20 0.9999965182396444
  outer loop
    vertex -1.4995312814561481 3.0000284811567144 3.0530397538308875
    vertex 18.6 50.7 3.0000000000000133
    vertex -1.4995312814561481 50.70002848115672 3.0530397538308875
  endloop
endfacet
facet normal 0.0 0.0 1.0
  outer loop
    vertex 19.599999999999998 48.7 9.599999999999987
    vertex 18.6 46.2 9.599999999999987
    vertex 19.6 46.2 9.599999999999987
  endloop
endfacet
facet normal 0.0 0.0 1.0
  outer loop
    vertex 18.6 46.2 9.599999999999987
    vertex 19.599999999999998 48.7 9.599999999999987
    vertex 18.599999999999998 48.7 9.599999999999987
  endloop
endfacet
facet normal -1.0 2.0037901737173777e-09 -4.810718628714813e-09
  outer loop
    vertex 14.349999769624876 50.70000361700643 35.60000000006569
    vertex 14.34999999999999 52.199999999999996 27.699999999692015
    vertex 14.34999999999999 50.7 27.699999999692015
  endloop
endfacet
facet normal -1.0 2.0037901737173777e-09 -4.810718628714813e-09
  outer loop
    vertex 14.34999999999999 52.199999999999996 27.699999999692015
    vertex 14.349999769624876 50.70000361700643 35.60000000006569
    vertex 14.34999999999999 52.199999999999996 37.7
  endloop
endfacet
facet normal -1.0 2.0037901737173777e-09 -4.810718628714813e-09
  outer loop
    vertex 14.34999999999999 52.199999999999996 37.7
    vertex 14.349999769624876 50.70000361700643 35.60000000006569
    vertex 14.349999769625452 32.70000361635254 35.60001844162472
  endloop
endfacet
facet normal -1.0 2.0037901737173777e-09 -4.810718628714813e-09
  outer loop
    vertex 14.34999999999999 52.199999999999996 37.7
    vertex 14.349999769625452 32.70000361635254 35.60001844162472
    vertex 14.350000000000554 32.20000000000025 37.700000356526914
  endloop
endfacet
facet normal -1.0 5.06152721758951e-26 -7.066721390048673e-09
  outer loop
    vertex 18.60000000000001 44.10000000000005 33.099999999999966
    vertex 18.6 46.2 9.599999999999987
    vertex 18.600000000000012 44.10000000000005 6.5999999999999925
  endloop
endfacet
facet normal -1.0 5.06152721758951e-26 -7.066721390048673e-09
  outer loop
    vertex 18.6 46.2 9.599999999999987
    vertex 18.60000000000001 44.10000000000005 33.099999999999966
    vertex 18.59999999999995 46.19999999999999 30.099999999999945
  endloop
endfacet
facet normal -1.0 5.06152721758951e-26 -7.066721390048673e-09
  outer loop
    vertex 18.59999999999995 46.19999999999999 30.099999999999945
    vertex 18.60000000000001 44.10000000000005 33.099999999999966
    vertex 18.59999999999995 48.69999999999999 30.099999999999945
  endloop
endfacet
facet normal -1.0 5.06152721758951e-26 -7.066721390048673e-09
  outer loop
    vertex 18.6 3.0 3.0000000000000133
    vertex 18.6 14.100000000000048 6.599999999999996
    vertex 18.6 50.7 3.0000000000000133
  endloop
endfacet
facet normal -1.0 5.06152721758951e-26 -7.066721390048673e-09
  outer loop
    vertex 18.6 14.100000000000048 6.599999999999996
    vertex 18.6 3.0 3.0000000000000133
    vertex 18.599999769624883 3.000003617006431 35.600000000065656
  endloop
endfacet
facet normal -1.0 5.06152721758951e-26 -7.066721390048673e-09
  outer loop
    vertex 18.6 50.7 3.0000000000000133
    vertex 18.6 14.100000000000048 6.599999999999996
    vertex 18.600000000000012 44.10000000000005 6.5999999999999925
  endloop
endfacet
facet normal -1.0 5.06152721758951e-26 -7.066721390048673e-09
  outer loop
    vertex 18.6 14.100000000000048 6.599999999999996
    vertex 18.599999769624883 3.000003617006431 35.600000000065656
    vertex 18.6 14.100000000000048 33.09999999999999
  endloop
endfacet
facet normal -1.0 5.06152721758951e-26 -7.066721390048673e-09
  outer loop
    vertex 18.6 50.7 3.0000000000000133
    vertex 18.599999999999998 48.7 9.599999999999987
    vertex 18.599999769624883 50.70000361700643 35.600000000065656
  endloop
endfacet
facet normal -1.0 5.06152721758951e-26 -7.066721390048673e-09
  outer loop
    vertex 18.599999999999998 48.7 9.599999999999987
    vertex 18.6 50.7 3.0000000000000133
    vertex 18.600000000000012 44.10000000000005 6.5999999999999925
  endloop
endfacet
facet normal -1.0 5.06152721758951e-26 -7.066721390048673e-09
  outer loop
    vertex 18.599999999999998 48.7 9.599999999999987
    vertex 18.600000000000012 44.10000000000005 6.5999999999999925
    vertex 18.6 46.2 9.599999999999987
  endloop
endfacet
facet normal -1.0 5.06152721758951e-26 -7.066721390048673e-09
  outer loop
    vertex 18.599999769624883 50.70000361700643 35.600000000065656
    vertex 18.599999999999998 48.7 9.599999999999987
    vertex 18.59999999999995 48.69999999999999 30.099999999999945
  endloop
endfacet
facet normal -1.0 5.06152721758951e-26 -7.066721390048673e-09
  outer loop
    vertex 18.599999769624883 50.70000361700643 35.600000000065656
    vertex 18.59999999999995 48.69999999999999 30.099999999999945
    vertex 18.60000000000001 44.10000000000005 33.099999999999966
  endloop
endfacet
facet normal -1.0 5.06152721758951e-26 -7.066721390048673e-09
  outer loop
    vertex 18.599999769624883 50.70000361700643 35.600000000065656
    vertex 18.60000000000001 44.10000000000005 33.099999999999966
    vertex 18.6 14.100000000000048 33.09999999999999
  endloop
endfacet
facet normal -1.0 5.06152721758951e-26 -7.066721390048673e-09
  outer loop
    vertex 18.599999769624883 50.70000361700643 35.600000000065656
    vertex 18.6 14.100000000000048 33.09999999999999
    vertex 18.599999769624883 3.000003617006431 35.600000000065656
  endloop
endfacet
facet normal 1.237385554882946e-15 -3.8960122673208314e-16 -1.0
  outer loop
    vertex -1.690122688171414 52.19999999999998 37.699999999999996
    vertex 14.350000000000554 32.20000000000025 37.700000356526914
    vertex -1.690122688171414 32.20000000000001 37.699999999999996
  endloop
endfacet
facet normal 1.237385554882946e-15 -3.8960122673208314e-16 -1.0
  outer loop
    vertex 14.350000000000554 32.20000000000025 37.700000356526914
    vertex -1.690122688171414 52.19999999999998 37.699999999999996
    vertex 14.34999999999999 52.199999999999996 37.7
  endloop
endfacet
facet normal 7.446459735943458e-07 0.9728036322724308 0.2316313731708442
  outer loop
    vertex 14.349999769625452 32.70000361635254 35.60001844162472
    vertex -1.690122688171414 32.20000000000001 37.699999999999996
    vertex 14.350000000000554 32.20000000000025 37.700000356526914
  endloop
endfacet
facet normal 7.446459735943458e-07 0.9728036322724308 0.2316313731708442
  outer loop
    vertex -1.690122688171414 32.20000000000001 37.699999999999996
    vertex 14.349999769625452 32.70000361635254 35.60001844162472
    vertex -1.6894083765873633 32.70000670948357 35.60014043403727
  endloop
endfacet
facet normal 7.446459735943458e-07 0.9728036322724308 0.2316313731708442
  outer loop
    vertex -1.690122688171414 32.20000000000001 37.699999999999996
    vertex -1.6894083765873633 32.70000670948357 35.60014043403727
    vertex -1.690042008079301 32.31905463825983 37.20001064596757
  endloop
endfacet
facet normal -2.855269122058021e-07 -0.9999999999999096 -3.1553244407591495e-07
  outer loop
    vertex -1.690122688171414 52.19999999999998 37.699999999999996
    vertex 14.34999999999999 52.199999999999996 27.699999999692015
    vertex 14.34999999999999 52.199999999999996 37.7
  endloop
endfacet
facet normal -2.855269122058021e-07 -0.9999999999999096 -3.1553244407591495e-07
  outer loop
    vertex 14.34999999999999 52.199999999999996 27.699999999692015
    vertex -1.690122688171414 52.19999999999998 37.699999999999996
    vertex -1.4990729322464051 52.20002848115671 27.753039753522906
  endloop
endfacet
facet normal -2.855269122058021e-07 -0.9999999999999096 -3.1553244407591495e-07
  outer loop
    vertex -1.4990729322464051 52.20002848115671 27.753039753522906
    vertex -1.690122688171414 52.19999999999998 37.699999999999996
    vertex -1.4995312814561452 52.20002848115671 1.5530397538308882
  endloop
endfacet
facet normal -2.855269122058021e-07 -0.9999999999999096 -3.1553244407591495e-07
  outer loop
    vertex -1.4995312814561452 52.20002848115671 1.5530397538308882
    vertex -1.690122688171414 52.19999999999998 37.699999999999996
    vertex -1.6908369997554638 52.20000309313125 37.20001061604302
  endloop
endfacet
facet normal -2.855269122058021e-07 -0.9999999999999096 -3.1553244407591495e-07
  outer loop
    vertex -1.4995312814561452 52.20002848115671 1.5530397538308882
    vertex -1.6908369997554638 52.20000309313125 37.20001061604302
    vertex -4.000000000000005 52.199999999999996 1.5
  endloop
endfacet
facet normal -2.855269122058021e-07 -0.9999999999999096 -3.1553244407591495e-07
  outer loop
    vertex -4.000000000000005 52.199999999999996 1.5
    vertex -1.6908369997554638 52.20000309313125 37.20001061604302
    vertex -4.000000000000005 52.199999999999996 37.19999999999998
  endloop
endfacet
facet normal -0.021207154065600024 -1.455837836597615e-20 0.9997751030188929
  outer loop
    vertex -1.4995312814561452 1.5000284811567142 1.5530397538308882
    vertex -4.000000000000005 52.199999999999996 1.5
    vertex -4.000000000000005 1.5 1.5
  endloop
endfacet
facet normal -0.021207154065600024 -1.455837836597615e-20 0.9997751030188929
  outer loop
    vertex -4.000000000000005 52.199999999999996 1.5
    vertex -1.4995312814561452 1.5000284811567142 1.5530397538308882
    vertex -1.4995312814561452 52.20002848115671 1.5530397538308882
  endloop
endfacet
facet normal -1.2375647589359768e-06 -0.9728099637745509 0.2316047805625472
  outer loop
    vertex -1.689788042868816 21.499999999999993 37.699999999999996
    vertex 14.353958271859025 21.00003941810793 35.599977798861204
    vertex 14.35395850223414 21.500035800766778 37.699996094144815
  endloop
endfacet
facet normal -1.2375647589359768e-06 -0.9728099637745509 0.2316047805625472
  outer loop
    vertex 14.353958271859025 21.00003941810793 35.599977798861204
    vertex -1.689788042868816 21.499999999999993 37.699999999999996
    vertex -1.689242097587201 21.000006710472416 35.59976977926746
  endloop
endfacet
facet normal -1.2375647589359768e-06 -0.9728099637745509 0.2316047805625472
  outer loop
    vertex -1.689242097587201 21.000006710472416 35.59976977926746
    vertex -1.689788042868816 21.499999999999993 37.699999999999996
    vertex -1.6897273317213095 21.38096956689594 37.200010652980524
  endloop
endfacet
facet normal 0.0033370856328056907 -8.87054164427108e-07 0.9999944319138446
  outer loop
    vertex 14.354473210165857 1.5009930625739543 27.70017350230899
    vertex -1.4979363792878824 3.0002295372070447 27.753075975009107
    vertex -1.4987338303720144 1.5000284811567142 27.753075975009107
  endloop
endfacet
facet normal 0.0033370856328056907 -8.87054164427108e-07 0.9999944319138446
  outer loop
    vertex -1.4979363792878824 3.0002295372070447 27.753075975009107
    vertex 14.354473210165857 1.5009930625739543 27.70017350230899
    vertex 14.354473210165857 3.0009930625739525 27.70017350230899
  endloop
endfacet
facet normal -7.908988571922603e-06 3.622414670643249e-05 -0.9999999993126296
  outer loop
    vertex -1.6894083765873633 32.70000670948357 35.60014043403727
    vertex 14.353958271859025 21.00003941810793 35.599977798861204
    vertex -1.689242097587201 21.000006710472416 35.59976977926746
  endloop
endfacet
facet normal -7.908988571922603e-06 3.622414670643249e-05 -0.9999999993126296
  outer loop
    vertex 14.353958271859025 21.00003941810793 35.599977798861204
    vertex -1.6894083765873633 32.70000670948357 35.60014043403727
    vertex 14.349999769625452 32.70000361635254 35.60001844162472
  endloop
endfacet
facet normal -7.908988571922603e-06 3.622414670643249e-05 -0.9999999993126296
  outer loop
    vertex 14.354022327717011 3.001004591860187 35.60017350237365
    vertex 18.599999769624883 50.70000361700643 35.600000000065656
    vertex 18.599999769624883 3.000003617006431 35.600000000065656
  endloop
endfacet
facet normal -7.908988571922603e-06 3.622414670643249e-05 -0.9999999993126296
  outer loop
    vertex 18.599999769624883 50.70000361700643 35.600000000065656
    vertex 14.354022327717011 3.001004591860187 35.60017350237365
    vertex 14.353958271859025 21.00003941810793 35.599977798861204
  endloop
endfacet
facet normal -7.908988571922603e-06 3.622414670643249e-05 -0.9999999993126296
  outer loop
    vertex 18.599999769624883 50.70000361700643 35.600000000065656
    vertex 14.353958271859025 21.00003941810793 35.599977798861204
    vertex 14.349999769625452 32.70000361635254 35.60001844162472
  endloop
endfacet
facet normal -7.908988571922603e-06 3.622414670643249e-05 -0.9999999993126296
  outer loop
    vertex 18.599999769624883 50.70000361700643 35.600000000065656
    vertex 14.349999769625452 32.70000361635254 35.60001844162472
    vertex 14.349999769624876 50.70000361700643 35.60000000006569
  endloop
endfacet
facet normal -0.9999999386598986 -2.099508345665796e-05 -0.00034962752416928017
  outer loop
    vertex -1.6897273317213095 21.38096956689594 37.200010652980524
    vertex -1.6894083765873633 32.70000670948357 35.60014043403727
    vertex -1.689242097587201 21.000006710472416 35.59976977926746
  endloop
endfacet
facet normal -0.9999999386598986 -2.099508345665796e-05 -0.00034962752416928017
  outer loop
    vertex -1.6894083765873633 32.70000670948357 35.60014043403727
    vertex -1.6897273317213095 21.38096956689594 37.200010652980524
    vertex -1.690042008079301 32.31905463825983 37.20001064596757
  endloop
endfacet
facet normal 0.9999998005461439 1.9874433250265802e-05 -0.0006312786068060636
  outer loop
    vertex -1.690122688171414 52.19999999999998 37.699999999999996
    vertex -1.690042008079301 32.31905463825983 37.20001064596757
    vertex -1.6908369997554638 52.20000309313125 37.20001061604302
  endloop
endfacet
facet normal 0.9999998005461439 1.9874433250265802e-05 -0.0006312786068060636
  outer loop
    vertex -1.690042008079301 32.31905463825983 37.20001064596757
    vertex -1.690122688171414 52.19999999999998 37.699999999999996
    vertex -1.690122688171414 32.20000000000001 37.699999999999996
  endloop
endfacet
facet normal -0.9999999993045159 -5.111912771695176e-06 3.6943699309328274e-05
  outer loop
    vertex -1.4995312814561452 1.5000284811567142 1.5530397538308882
    vertex -1.4995312814561481 3.0000284811567144 3.0530397538308875
    vertex -1.4995312814561452 52.20002848115671 1.5530397538308882
  endloop
endfacet
facet normal -0.9999999993045159 -5.111912771695176e-06 3.6943699309328274e-05
  outer loop
    vertex -1.4995312814561481 3.0000284811567144 3.0530397538308875
    vertex -1.4995312814561452 1.5000284811567142 1.5530397538308882
    vertex -1.4987338303720144 1.5000284811567142 27.753075975009107
  endloop
endfacet
facet normal -0.9999999993045159 -5.111912771695176e-06 3.6943699309328274e-05
  outer loop
    vertex -1.4995312814561481 3.0000284811567144 3.0530397538308875
    vertex -1.4987338303720144 1.5000284811567142 27.753075975009107
    vertex -1.4979363792878824 3.0002295372070447 27.753075975009107
  endloop
endfacet
facet normal -0.9999999993045159 -5.111912771695176e-06 3.6943699309328274e-05
  outer loop
    vertex -1.4995312814561452 52.20002848115671 1.5530397538308882
    vertex -1.4995312814561481 50.70002848115672 3.0530397538308875
    vertex -1.4990729322464051 52.20002848115671 27.753039753522906
  endloop
endfacet
facet normal -0.9999999993045159 -5.111912771695176e-06 3.6943699309328274e-05
  outer loop
    vertex -1.4995312814561481 50.70002848115672 3.0530397538308875
    vertex -1.4995312814561452 52.20002848115671 1.5530397538308882
    vertex -1.4995312814561481 3.0000284811567144 3.0530397538308875
  endloop
endfacet
facet normal -0.9999999993045159 -5.111912771695176e-06 3.6943699309328274e-05
  outer loop
    vertex -1.4990729322464051 52.20002848115671 27.753039753522906
    vertex -1.4995312814561481 50.70002848115672 3.0530397538308875
    vertex -1.4986145830366648 50.700205971954105 27.753039753522906
  endloop
endfacet
facet normal -6.11784668902717e-05 0.9999999980135634 -1.5168001511572307e-05
  outer loop
    vertex -4.000000000000005 1.5 1.5
    vertex -1.6900395176522016 1.500551544670076 37.19999994217629
    vertex -1.4995312814561452 1.5000284811567142 1.5530397538308882
  endloop
endfacet
facet normal -6.11784668902717e-05 0.9999999980135634 -1.5168001511572307e-05
  outer loop
    vertex -1.6900395176522016 1.500551544670076 37.19999994217629
    vertex -4.000000000000005 1.5 1.5
    vertex -4.000000000000005 1.5 37.199999999999974
  endloop
endfacet
facet normal -6.11784668902717e-05 0.9999999980135634 -1.5168001511572307e-05
  outer loop
    vertex 14.354473210165857 1.5009930625739543 27.70017350230899
    vertex -1.690039548671333 1.5010515785241008 37.70090605757536
    vertex 14.355161722079274 1.501843640653873 37.701949405919706
  endloop
endfacet
facet normal -6.11784668902717e-05 0.9999999980135634 -1.5168001511572307e-05
  outer loop
    vertex -1.690039548671333 1.5010515785241008 37.70090605757536
    vertex 14.354473210165857 1.5009930625739543 27.70017350230899
    vertex -1.4987338303720144 1.5000284811567142 27.753075975009107
  endloop
endfacet
facet normal -6.11784668902717e-05 0.9999999980135634 -1.5168001511572307e-05
  outer loop
    vertex -1.690039548671333 1.5010515785241008 37.70090605757536
    vertex -1.4987338303720144 1.5000284811567142 27.753075975009107
    vertex -1.4995312814561452 1.5000284811567142 1.5530397538308882
  endloop
endfacet
facet normal -6.11784668902717e-05 0.9999999980135634 -1.5168001511572307e-05
  outer loop
    vertex -1.690039548671333 1.5010515785241008 37.70090605757536
    vertex -1.4995312814561452 1.5000284811567142 1.5530397538308882
    vertex -1.6900395176522016 1.500551544670076 37.19999994217629
  endloop
endfacet
facet normal 3.4481166851823034e-06 1.0288453866409868e-07 -0.9999999999940501
  outer loop
    vertex -4.000000000000005 52.199999999999996 37.19999999999998
    vertex -1.6900395176522016 1.500551544670076 37.19999994217629
    vertex -4.000000000000005 1.5 37.199999999999974
  endloop
endfacet
facet normal 3.4481166851823034e-06 1.0288453866409868e-07 -0.9999999999940501
  outer loop
    vertex -1.6900395176522016 1.500551544670076 37.19999994217629
    vertex -4.000000000000005 52.199999999999996 37.19999999999998
    vertex -1.6897273317213095 21.38096956689594 37.200010652980524
  endloop
endfacet
facet normal 3.4481166851823034e-06 1.0288453866409868e-07 -0.9999999999940501
  outer loop
    vertex -1.6897273317213095 21.38096956689594 37.200010652980524
    vertex -4.000000000000005 52.199999999999996 37.19999999999998
    vertex -1.690042008079301 32.31905463825983 37.20001064596757
  endloop
endfacet
facet normal 3.4481166851823034e-06 1.0288453866409868e-07 -0.9999999999940501
  outer loop
    vertex -1.690042008079301 32.31905463825983 37.20001064596757
    vertex -4.000000000000005 52.199999999999996 37.19999999999998
    vertex -1.6908369997554638 52.20000309313125 37.20001061604302
  endloop
endfacet
facet normal 0.9999999979584091 -1.4128866954464184e-05 6.231819295059902e-05
  outer loop
    vertex -1.6897273317213095 21.38096956689594 37.200010652980524
    vertex -1.690039548671333 1.5010515785241008 37.70090605757536
    vertex -1.6900395176522016 1.500551544670076 37.19999994217629
  endloop
endfacet
facet normal 0.9999999979584091 -1.4128866954464184e-05 6.231819295059902e-05
  outer loop
    vertex -1.690039548671333 1.5010515785241008 37.70090605757536
    vertex -1.6897273317213095 21.38096956689594 37.200010652980524
    vertex -1.689788042868816 21.499999999999993 37.699999999999996
  endloop
endfacet
facet normal -6.150881421065495e-05 -2.0525628693772712e-05 -0.9999999978976821
  outer loop
    vertex -1.689788042868816 21.499999999999993 37.699999999999996
    vertex 14.355161722079274 1.501843640653873 37.701949405919706
    vertex -1.690039548671333 1.5010515785241008 37.70090605757536
  endloop
endfacet
facet normal -6.150881421065495e-05 -2.0525628693772712e-05 -0.9999999978976821
  outer loop
    vertex 14.355161722079274 1.501843640653873 37.701949405919706
    vertex -1.689788042868816 21.499999999999993 37.699999999999996
    vertex 14.35395850223414 21.500035800766778 37.699996094144815
  endloop
endfacet
facet normal 3.3491011393033563e-07 -3.1531980477276567e-06 -0.9999999999949727
  outer loop
    vertex 12.00000527500225 2.9999841754971115 23.149999497669867
    vertex 15.000005281699254 1.9999841754946255 23.15000365559826
    vertex 12.000005281646583 1.9999841754946255 23.15000265086792
  endloop
endfacet
facet normal 3.3491011393033563e-07 -3.1531980477276567e-06 -0.9999999999949727
  outer loop
    vertex 15.000005281699254 1.9999841754946255 23.15000365559826
    vertex 12.00000527500225 2.9999841754971115 23.149999497669867
    vertex 15.000005275054919 2.9999841754971115 23.150000502400207
  endloop
endfacet
facet normal -3.3491011393033563e-07 3.1531980477276584e-06 0.9999999999949727
  outer loop
    vertex 15.000000000220624 3.0 14.650000502261085
    vertex 12.000000006812288 1.9999999999975147 14.650002650728792
    vertex 15.000000006864958 1.9999999999975147 14.650003655459134
  endloop
endfacet
facet normal -3.3491011393033563e-07 3.1531980477276584e-06 0.9999999999949727
  outer loop
    vertex 12.000000006812288 1.9999999999975147 14.650002650728792
    vertex 15.000000000220624 3.0 14.650000502261085
    vertex 12.000000000167953 3.0 14.649999497530743
  endloop
endfacet
facet normal 0.9999999999998075 6.642377750895514e-09 -6.205687283214376e-07
  outer loop
    vertex 12.00000527500225 2.9999841754971115 23.149999497669867
    vertex 12.000000006812288 1.9999999999975147 14.650002650728792
    vertex 12.000000000167953 3.0 14.649999497530743
  endloop
endfacet
facet normal 0.9999999999998075 6.642377750895514e-09 -6.205687283214376e-07
  outer loop
    vertex 12.000000006812288 1.9999999999975147 14.650002650728792
    vertex 12.00000527500225 2.9999841754971115 23.149999497669867
    vertex 12.000005281646583 1.9999841754946255 23.15000265086792
  endloop
endfacet
facet normal -0.9999999999998075 -6.642377750895954e-09 6.205687283214375e-07
  outer loop
    vertex 15.000000006864958 1.9999999999975147 14.650003655459134
    vertex 15.000005275054919 2.9999841754971115 23.150000502400207
    vertex 15.000000000220624 3.0 14.650000502261085
  endloop
endfacet
facet normal -0.9999999999998075 -6.642377750895954e-09 6.205687283214375e-07
  outer loop
    vertex 15.000005275054919 2.9999841754971115 23.150000502400207
    vertex 15.000000006864958 1.9999999999975147 14.650003655459134
    vertex 15.000005281699254 1.9999841754946255 23.15000365559826
  endloop
endfacet
facet normal 9.491968451430364e-10 -0.9999999999986924 -1.6172274615008907e-06
  outer loop
    vertex 17.00000628642987 1.999980770475159 25.900003692807914
    vertex 15.000005281699254 1.9999841754946255 23.15000365559826
    vertex 16.99999900213489 2.0000034116596135 11.900003692673957
  endloop
endfacet
facet normal 9.491968451430364e-10 -0.9999999999986924 -1.6172274615008907e-06
  outer loop
    vertex 15.000005281699254 1.9999841754946255 23.15000365559826
    vertex 17.00000628642987 1.999980770475159 25.900003692807914
    vertex 10.000006286376655 1.9999807638325264 25.90000261365309
  endloop
endfacet
facet normal 9.491968451430364e-10 -0.9999999999986924 -1.6172274615008907e-06
  outer loop
    vertex 15.000005281699254 1.9999841754946255 23.15000365559826
    vertex 10.000006286376655 1.9999807638325264 25.90000261365309
    vertex 12.000005281646583 1.9999841754946255 23.15000265086792
  endloop
endfacet
facet normal 9.491968451430364e-10 -0.9999999999986924 -1.6172274615008907e-06
  outer loop
    vertex 12.000005281646583 1.9999841754946255 23.15000265086792
    vertex 10.000006286376655 1.9999807638325264 25.90000261365309
    vertex 12.000000006812288 1.9999999999975147 14.650002650728792
  endloop
endfacet
facet normal 9.491968451430364e-10 -0.9999999999986924 -1.6172274615008907e-06
  outer loop
    vertex 16.99999900213489 2.0000034116596135 11.900003692673957
    vertex 15.000000006864958 1.9999999999975147 14.650003655459134
    vertex 9.999999002081674 2.000003405016981 11.900002613519135
  endloop
endfacet
facet normal 9.491968451430364e-10 -0.9999999999986924 -1.6172274615008907e-06
  outer loop
    vertex 15.000000006864958 1.9999999999975147 14.650003655459134
    vertex 16.99999900213489 2.0000034116596135 11.900003692673957
    vertex 15.000005281699254 1.9999841754946255 23.15000365559826
  endloop
endfacet
facet normal 9.491968451430364e-10 -0.9999999999986924 -1.6172274615008907e-06
  outer loop
    vertex 9.999999002081674 2.000003405016981 11.900002613519135
    vertex 15.000000006864958 1.9999999999975147 14.650003655459134
    vertex 12.000000006812288 1.9999999999975147 14.650002650728792
  endloop
endfacet
facet normal 9.491968451430364e-10 -0.9999999999986924 -1.6172274615008907e-06
  outer loop
    vertex 9.999999002081674 2.000003405016981 11.900002613519135
    vertex 12.000000006812288 1.9999999999975147 14.650002650728792
    vertex 10.000006286376655 1.9999807638325264 25.90000261365309
  endloop
endfacet
facet normal 0.9999999999998648 -3.321346948335035e-09 -5.203067896205596e-07
  outer loop
    vertex 9.999999002081674 2.000003405016981 11.900002613519135
    vertex 10.00000627973232 -1.9236164988041353e-05 25.899999460455042
    vertex 9.999998995437341 3.4050194664384523e-06 11.899999460321082
  endloop
endfacet
facet normal 0.9999999999998648 -3.321346948335035e-09 -5.203067896205596e-07
  outer loop
    vertex 10.00000627973232 -1.9236164988041353e-05 25.899999460455042
    vertex 9.999999002081674 2.000003405016981 11.900002613519135
    vertex 10.000006286376655 1.9999807638325264 25.90000261365309
  endloop
endfacet
facet normal -1.5416497334566391e-07 -1.576599025886104e-06 0.9999999999987454
  outer loop
    vertex 16.999998995490554 3.4116620991881816e-06 11.900000539475906
    vertex 9.999999002081674 2.000003405016981 11.900002613519135
    vertex 9.999998995437341 3.4050194664384523e-06 11.899999460321082
  endloop
endfacet
facet normal -1.5416497334566391e-07 -1.576599025886104e-06 0.9999999999987454
  outer loop
    vertex 9.999999002081674 2.000003405016981 11.900002613519135
    vertex 16.999998995490554 3.4116620991881816e-06 11.900000539475906
    vertex 16.99999900213489 2.0000034116596135 11.900003692673957
  endloop
endfacet
facet normal -0.9999999999998648 3.3213469483349017e-09 5.203067896205596e-07
  outer loop
    vertex 17.000006279785534 -1.922952235529163e-05 25.900000539609866
    vertex 16.99999900213489 2.0000034116596135 11.900003692673957
    vertex 16.999998995490554 3.4116620991881816e-06 11.900000539475906
  endloop
endfacet
facet normal -0.9999999999998648 3.3213469483349017e-09 5.203067896205596e-07
  outer loop
    vertex 16.99999900213489 2.0000034116596135 11.900003692673957
    vertex 17.000006279785534 -1.922952235529163e-05 25.900000539609866
    vertex 17.00000628642987 1.999980770475159 25.900003692807914
  endloop
endfacet
facet normal 1.5416497334566394e-07 1.5765990230661374e-06 -0.9999999999987454
  outer loop
    vertex 10.000006286376655 1.9999807638325264 25.90000261365309
    vertex 17.000006279785534 -1.922952235529163e-05 25.900000539609866
    vertex 10.00000627973232 -1.9236164988041353e-05 25.899999460455042
  endloop
endfacet
facet normal 1.5416497334566394e-07 1.5765990230661374e-06 -0.9999999999987454
  outer loop
    vertex 17.000006279785534 -1.922952235529163e-05 25.900000539609866
    vertex 10.000006286376655 1.9999807638325264 25.90000261365309
    vertex 17.00000628642987 1.999980770475159 25.900003692807914
  endloop
endfacet
facet normal -3.3822573454563466e-06 0.9999999998555189 -1.6659016139849874e-05
  outer loop
    vertex 15.068031587950307 3.000038727989757 8.406994962662422
    vertex 15.000000000220624 3.0 14.650000502261085
    vertex 15.000005275054919 2.9999841754971115 23.150000502400207
  endloop
endfacet
facet normal -3.3822573454563466e-06 0.9999999998555189 -1.6659016139849874e-05
  outer loop
    vertex 15.000000000220624 3.0 14.650000502261085
    vertex 15.068031587950307 3.000038727989757 8.406994962662422
    vertex 11.931962768109118 3.000038727989757 8.406994962662422
  endloop
endfacet
facet normal -3.3822573454563466e-06 0.9999999998555189 -1.6659016139849874e-05
  outer loop
    vertex 15.000000000220624 3.0 14.650000502261085
    vertex 11.931962768109118 3.000038727989757 8.406994962662422
    vertex 12.000000000167953 3.0 14.649999497530743
  endloop
endfacet
facet normal -3.3822573454563466e-06 0.9999999998555189 -1.6659016139849874e-05
  outer loop
    vertex 18.6 3.0 3.0000000000000133
    vertex 16.277474057040063 3.0000387279897685 6.106994962662422
    vertex 18.599999769624883 3.000003617006431 35.600000000065656
  endloop
endfacet
facet normal -3.3822573454563466e-06 0.9999999998555189 -1.6659016139849874e-05
  outer loop
    vertex 16.277474057040063 3.0000387279897685 6.106994962662422
    vertex 18.6 3.0 3.0000000000000133
    vertex 16.242606643130717 3.0000387279897627 5.668081905831533
  endloop
endfacet
facet normal -3.3822573454563466e-06 0.9999999998555189 -1.6659016139849874e-05
  outer loop
    vertex 16.242606643130717 3.0000387279897627 5.668081905831533
    vertex 18.6 3.0 3.0000000000000133
    vertex 16.138879042904282 3.0000387279897347 5.240178887659635
  endloop
endfacet
facet normal -3.3822573454563466e-06 0.9999999998555189 -1.6659016139849874e-05
  outer loop
    vertex 16.138879042904282 3.0000387279897347 5.240178887659635
    vertex 18.6 3.0 3.0000000000000133
    vertex 15.968893240673399 3.0000387279897347 4.8340197623783085
  endloop
endfacet
facet normal -3.3822573454563466e-06 0.9999999998555189 -1.6659016139849874e-05
  outer loop
    vertex 15.968893240673399 3.0000387279897347 4.8340197623783085
    vertex 18.6 3.0 3.0000000000000133
    vertex 15.736913293350758 3.000038727989757 4.459792943390762
  endloop
endfacet
facet normal -3.3822573454563466e-06 0.9999999998555189 -1.6659016139849874e-05
  outer loop
    vertex 15.736913293350758 3.000038727989757 4.459792943390762
    vertex 18.6 3.0 3.0000000000000133
    vertex 15.448758367507894 3.0000387279897516 4.12688582913536
  endloop
endfacet
facet normal -3.3822573454563466e-06 0.9999999998555189 -1.6659016139849874e-05
  outer loop
    vertex 15.448758367507894 3.0000387279897516 4.12688582913536
    vertex 18.6 3.0 3.0000000000000133
    vertex 15.068031587950307 3.0000387279897516 3.8069949626624218
  endloop
endfacet
facet normal -3.3822573454563466e-06 0.9999999998555189 -1.6659016139849874e-05
  outer loop
    vertex 15.068031587950307 3.0000387279897516 3.8069949626624218
    vertex 18.6 3.0 3.0000000000000133
    vertex -1.4995312814561481 3.0000284811567144 3.0530397538308875
  endloop
endfacet
facet normal -3.3822573454563466e-06 0.9999999998555189 -1.6659016139849874e-05
  outer loop
    vertex 15.068031587950307 3.0000387279897516 3.8069949626624218
    vertex -1.4995312814561481 3.0000284811567144 3.0530397538308875
    vertex 11.931962768109123 3.000038727989757 3.8069949626624204
  endloop
endfacet
facet normal -3.3822573454563466e-06 0.9999999998555189 -1.6659016139849874e-05
  outer loop
    vertex 11.931962768109123 3.000038727989757 3.8069949626624204
    vertex -1.4995312814561481 3.0000284811567144 3.0530397538308875
    vertex 11.516389357600797 3.0000387279897347 4.12587565603192
  endloop
endfacet
facet normal -3.3822573454563466e-06 0.9999999998555189 -1.6659016139849874e-05
  outer loop
    vertex 11.516389357600797 3.0000387279897347 4.12587565603192
    vertex -1.4995312814561481 3.0000284811567144 3.0530397538308875
    vertex 11.07114295382073 3.0000387279897347 4.706132066604405
  endloop
endfacet
facet normal -3.3822573454563466e-06 0.9999999998555189 -1.6659016139849874e-05
  outer loop
    vertex 11.07114295382073 3.0000387279897347 4.706132066604405
    vertex -1.4995312814561481 3.0000284811567144 3.0530397538308875
    vertex 10.79124936344623 3.00003872798974 5.3818549685078425
  endloop
endfacet
facet normal -3.3822573454563466e-06 0.9999999998555189 -1.6659016139849874e-05
  outer loop
    vertex 10.79124936344623 3.00003872798974 5.3818549685078425
    vertex -1.4995312814561481 3.0000284811567144 3.0530397538308875
    vertex 10.695782872115265 3.00003872798974 6.106994962662419
  endloop
endfacet
facet normal -3.3822573454563466e-06 0.9999999998555189 -1.6659016139849874e-05
  outer loop
    vertex 10.695782872115265 3.00003872798974 6.106994962662419
    vertex -1.4995312814561481 3.0000284811567144 3.0530397538308875
    vertex -1.4979363792878824 3.0002295372070447 27.753075975009107
  endloop
endfacet
facet normal -3.3822573454563466e-06 0.9999999998555189 -1.6659016139849874e-05
  outer loop
    vertex 12.00000527500225 2.9999841754971115 23.149999497669867
    vertex 14.354473210165857 3.0009930625739525 27.70017350230899
    vertex 15.000005275054919 2.9999841754971115 23.150000502400207
  endloop
endfacet
facet normal -3.3822573454563466e-06 0.9999999998555189 -1.6659016139849874e-05
  outer loop
    vertex 14.354473210165857 3.0009930625739525 27.70017350230899
    vertex 12.00000527500225 2.9999841754971115 23.149999497669867
    vertex -1.4979363792878824 3.0002295372070447 27.753075975009107
  endloop
endfacet
facet normal -3.3822573454563466e-06 0.9999999998555189 -1.6659016139849874e-05
  outer loop
    vertex -1.4979363792878824 3.0002295372070447 27.753075975009107
    vertex 12.00000527500225 2.9999841754971115 23.149999497669867
    vertex 12.000000000167953 3.0 14.649999497530743
  endloop
endfacet
facet normal -3.3822573454563466e-06 0.9999999998555189 -1.6659016139849874e-05
  outer loop
    vertex -1.4979363792878824 3.0002295372070447 27.753075975009107
    vertex 12.000000000167953 3.0 14.649999497530743
    vertex 11.931962768109118 3.000038727989757 8.406994962662422
  endloop
endfacet
facet normal -3.3822573454563466e-06 0.9999999998555189 -1.6659016139849874e-05
  outer loop
    vertex -1.4979363792878824 3.0002295372070447 27.753075975009107
    vertex 11.931962768109118 3.000038727989757 8.406994962662422
    vertex 11.516389357600797 3.0000387279897347 8.08811426929292
  endloop
endfacet
facet normal -3.3822573454563466e-06 0.9999999998555189 -1.6659016139849874e-05
  outer loop
    vertex -1.4979363792878824 3.0002295372070447 27.753075975009107
    vertex 11.516389357600797 3.0000387279897347 8.08811426929292
    vertex 11.07114295382073 3.0000387279897347 7.5078578587204365
  endloop
endfacet
facet normal -3.3822573454563466e-06 0.9999999998555189 -1.6659016139849874e-05
  outer loop
    vertex -1.4979363792878824 3.0002295372070447 27.753075975009107
    vertex 11.07114295382073 3.0000387279897347 7.5078578587204365
    vertex 10.79124936344623 3.00003872798974 6.832134956817001
  endloop
endfacet
facet normal -3.3822573454563466e-06 0.9999999998555189 -1.6659016139849874e-05
  outer loop
    vertex -1.4979363792878824 3.0002295372070447 27.753075975009107
    vertex 10.79124936344623 3.00003872798974 6.832134956817001
    vertex 10.695782872115265 3.00003872798974 6.106994962662419
  endloop
endfacet
facet normal -3.3822573454563466e-06 0.9999999998555189 -1.6659016139849874e-05
  outer loop
    vertex 16.277474057040063 3.0000387279897685 6.106994962662422
    vertex 14.354022327717011 3.001004591860187 35.60017350237365
    vertex 18.599999769624883 3.000003617006431 35.600000000065656
  endloop
endfacet
facet normal -3.3822573454563466e-06 0.9999999998555189 -1.6659016139849874e-05
  outer loop
    vertex 14.354022327717011 3.001004591860187 35.60017350237365
    vertex 16.277474057040063 3.0000387279897685 6.106994962662422
    vertex 16.242606643130717 3.0000387279897627 6.545908019493309
  endloop
endfacet
facet normal -3.3822573454563466e-06 0.9999999998555189 -1.6659016139849874e-05
  outer loop
    vertex 14.354022327717011 3.001004591860187 35.60017350237365
    vertex 16.242606643130717 3.0000387279897627 6.545908019493309
    vertex 16.138879042904293 3.000038727989746 6.973811037665221
  endloop
endfacet
facet normal -3.3822573454563466e-06 0.9999999998555189 -1.6659016139849874e-05
  outer loop
    vertex 14.354022327717011 3.001004591860187 35.60017350237365
    vertex 16.138879042904293 3.000038727989746 6.973811037665221
    vertex 15.968893240673399 3.0000387279897347 7.379970162946521
  endloop
endfacet
facet normal -3.3822573454563466e-06 0.9999999998555189 -1.6659016139849874e-05
  outer loop
    vertex 14.354022327717011 3.001004591860187 35.60017350237365
    vertex 15.968893240673399 3.0000387279897347 7.379970162946521
    vertex 15.000005275054919 2.9999841754971115 23.150000502400207
  endloop
endfacet
facet normal -3.3822573454563466e-06 0.9999999998555189 -1.6659016139849874e-05
  outer loop
    vertex 15.000005275054919 2.9999841754971115 23.150000502400207
    vertex 15.968893240673399 3.0000387279897347 7.379970162946521
    vertex 15.736913293350758 3.000038727989757 7.754196981934079
  endloop
endfacet
facet normal -3.3822573454563466e-06 0.9999999998555189 -1.6659016139849874e-05
  outer loop
    vertex 15.000005275054919 2.9999841754971115 23.150000502400207
    vertex 15.736913293350758 3.000038727989757 7.754196981934079
    vertex 15.448758367507917 3.000038727989757 8.087104096189474
  endloop
endfacet
facet normal -3.3822573454563466e-06 0.9999999998555189 -1.6659016139849874e-05
  outer loop
    vertex 15.000005275054919 2.9999841754971115 23.150000502400207
    vertex 15.448758367507917 3.000038727989757 8.087104096189474
    vertex 15.068031587950307 3.000038727989757 8.406994962662422
  endloop
endfacet
facet normal -3.3822573454563466e-06 0.9999999998555189 -1.6659016139849874e-05
  outer loop
    vertex 14.354022327717011 3.001004591860187 35.60017350237365
    vertex 15.000005275054919 2.9999841754971115 23.150000502400207
    vertex 14.354473210165857 3.0009930625739525 27.70017350230899
  endloop
endfacet
facet normal 2.820468473201943e-08 -0.9999999999999893 -1.431057684386451e-07
  outer loop
    vertex 16.999998995490554 3.4116620991881816e-06 11.900000539475906
    vertex 16.24260664313074 4.002722119741852e-06 6.545908019493315
    vertex 16.277474057040084 4.002722125381784e-06 6.106994962662429
  endloop
endfacet
facet normal 2.820468473201943e-08 -0.9999999999999893 -1.431057684386451e-07
  outer loop
    vertex 16.24260664313074 4.002722119741852e-06 6.545908019493315
    vertex 16.999998995490554 3.4116620991881816e-06 11.900000539475906
    vertex 16.138879042904314 4.002722102822053e-06 6.973811037665227
  endloop
endfacet
facet normal 2.820468473201943e-08 -0.9999999999999893 -1.431057684386451e-07
  outer loop
    vertex 16.138879042904314 4.002722102822053e-06 6.973811037665227
    vertex 16.999998995490554 3.4116620991881816e-06 11.900000539475906
    vertex 15.968893240673422 4.002722094362153e-06 7.379970162946527
  endloop
endfacet
facet normal 2.820468473201943e-08 -0.9999999999999893 -1.431057684386451e-07
  outer loop
    vertex 15.968893240673422 4.002722094362153e-06 7.379970162946527
    vertex 16.999998995490554 3.4116620991881816e-06 11.900000539475906
    vertex 15.73691329335078 4.002722116921885e-06 7.754196981934085
  endloop
endfacet
facet normal 2.820468473201943e-08 -0.9999999999999893 -1.431057684386451e-07
  outer loop
    vertex 15.73691329335078 4.002722116921885e-06 7.754196981934085
    vertex 16.999998995490554 3.4116620991881816e-06 11.900000539475906
    vertex 15.448758367507939 4.002722116921885e-06 8.08710409618948
  endloop
endfacet
facet normal 2.820468473201943e-08 -0.9999999999999893 -1.431057684386451e-07
  outer loop
    vertex 15.448758367507939 4.002722116921885e-06 8.08710409618948
    vertex 16.999998995490554 3.4116620991881816e-06 11.900000539475906
    vertex 15.06803158795033 4.002722116921885e-06 8.406994962662427
  endloop
endfacet
facet normal 2.820468473201943e-08 -0.9999999999999893 -1.431057684386451e-07
  outer loop
    vertex 15.06803158795033 4.002722116921885e-06 8.406994962662427
    vertex 16.999998995490554 3.4116620991881816e-06 11.900000539475906
    vertex 9.999998995437341 3.4050194664384523e-06 11.899999460321082
  endloop
endfacet
facet normal 2.820468473201943e-08 -0.9999999999999893 -1.431057684386451e-07
  outer loop
    vertex 15.06803158795033 4.002722116921885e-06 8.406994962662427
    vertex 9.999998995437341 3.4050194664384523e-06 11.899999460321082
    vertex 11.931962768109129 4.002722114101919e-06 8.406994962662427
  endloop
endfacet
facet normal 2.820468473201943e-08 -0.9999999999999893 -1.431057684386451e-07
  outer loop
    vertex 11.931962768109129 4.002722114101919e-06 8.406994962662427
    vertex 9.999998995437341 3.4050194664384523e-06 11.899999460321082
    vertex 11.516389357600808 4.002722091542187e-06 8.088114269292925
  endloop
endfacet
facet normal 2.820468473201943e-08 -0.9999999999999893 -1.431057684386451e-07
  outer loop
    vertex 11.516389357600808 4.002722091542187e-06 8.088114269292925
    vertex 9.999998995437341 3.4050194664384523e-06 11.899999460321082
    vertex 11.071142953820742 4.002722091542187e-06 7.507857858720443
  endloop
endfacet
facet normal 2.820468473201943e-08 -0.9999999999999893 -1.431057684386451e-07
  outer loop
    vertex 11.071142953820742 4.002722091542187e-06 7.507857858720443
    vertex 9.999998995437341 3.4050194664384523e-06 11.899999460321082
    vertex 10.791249363446239 4.0027220971821195e-06 6.832134956817006
  endloop
endfacet
facet normal 2.820468473201943e-08 -0.9999999999999893 -1.431057684386451e-07
  outer loop
    vertex 10.791249363446239 4.0027220971821195e-06 6.832134956817006
    vertex 9.999998995437341 3.4050194664384523e-06 11.899999460321082
    vertex 10.695782872115274 4.002722100002086e-06 6.106994962662427
  endloop
endfacet
facet normal 2.820468473201943e-08 -0.9999999999999893 -1.431057684386451e-07
  outer loop
    vertex 19.999999999999996 0.0 38.69999999999999
    vertex 17.000006279785534 -1.922952235529163e-05 25.900000539609866
    vertex 20.0 0.0 1.577583841267272e-14
  endloop
endfacet
facet normal 2.820468473201943e-08 -0.9999999999999893 -1.431057684386451e-07
  outer loop
    vertex 17.000006279785534 -1.922952235529163e-05 25.900000539609866
    vertex 19.999999999999996 0.0 38.69999999999999
    vertex -4.000000000000005 5.25133423193278e-17 38.69999999999998
  endloop
endfacet
facet normal 2.820468473201943e-08 -0.9999999999999893 -1.431057684386451e-07
  outer loop
    vertex 17.000006279785534 -1.922952235529163e-05 25.900000539609866
    vertex -4.000000000000005 5.25133423193278e-17 38.69999999999998
    vertex 10.00000627973232 -1.9236164988041353e-05 25.899999460455042
  endloop
endfacet
facet normal 2.820468473201943e-08 -0.9999999999999893 -1.431057684386451e-07
  outer loop
    vertex 10.00000627973232 -1.9236164988041353e-05 25.899999460455042
    vertex -4.000000000000005 5.25133423193278e-17 38.69999999999998
    vertex 9.999998995437341 3.4050194664384523e-06 11.899999460321082
  endloop
endfacet
facet normal 2.820468473201943e-08 -0.9999999999999893 -1.431057684386451e-07
  outer loop
    vertex 20.0 0.0 1.577583841267272e-14
    vertex 15.06803158795033 4.002722108461985e-06 3.8069949626624293
    vertex -4.000000000000005 5.25133423193278e-17 -7.286735097022977e-17
  endloop
endfacet
facet normal 2.820468473201943e-08 -0.9999999999999893 -1.431057684386451e-07
  outer loop
    vertex 15.06803158795033 4.002722108461985e-06 3.8069949626624293
    vertex 20.0 0.0 1.577583841267272e-14
    vertex 15.448758367507917 4.002722108461985e-06 4.126885829135368
  endloop
endfacet
facet normal 2.820468473201943e-08 -0.9999999999999893 -1.431057684386451e-07
  outer loop
    vertex 15.448758367507917 4.002722108461985e-06 4.126885829135368
    vertex 20.0 0.0 1.577583841267272e-14
    vertex 15.73691329335078 4.002722116921885e-06 4.45979294339077
  endloop
endfacet
facet normal 2.820468473201943e-08 -0.9999999999999893 -1.431057684386451e-07
  outer loop
    vertex 15.73691329335078 4.002722116921885e-06 4.45979294339077
    vertex 20.0 0.0 1.577583841267272e-14
    vertex 15.968893240673422 4.002722094362153e-06 4.8340197623783165
  endloop
endfacet
facet normal 2.820468473201943e-08 -0.9999999999999893 -1.431057684386451e-07
  outer loop
    vertex 15.968893240673422 4.002722094362153e-06 4.8340197623783165
    vertex 20.0 0.0 1.577583841267272e-14
    vertex 16.138879042904303 4.002722091542187e-06 5.240178887659643
  endloop
endfacet
facet normal 2.820468473201943e-08 -0.9999999999999893 -1.431057684386451e-07
  outer loop
    vertex 16.138879042904303 4.002722091542187e-06 5.240178887659643
    vertex 20.0 0.0 1.577583841267272e-14
    vertex 16.24260664313074 4.002722119741852e-06 5.668081905831541
  endloop
endfacet
facet normal 2.820468473201943e-08 -0.9999999999999893 -1.431057684386451e-07
  outer loop
    vertex 16.24260664313074 4.002722119741852e-06 5.668081905831541
    vertex 20.0 0.0 1.577583841267272e-14
    vertex 16.999998995490554 3.4116620991881816e-06 11.900000539475906
  endloop
endfacet
facet normal 2.820468473201943e-08 -0.9999999999999893 -1.431057684386451e-07
  outer loop
    vertex 16.999998995490554 3.4116620991881816e-06 11.900000539475906
    vertex 20.0 0.0 1.577583841267272e-14
    vertex 17.000006279785534 -1.922952235529163e-05 25.900000539609866
  endloop
endfacet
facet normal 2.820468473201943e-08 -0.9999999999999893 -1.431057684386451e-07
  outer loop
    vertex 16.24260664313074 4.002722119741852e-06 5.668081905831541
    vertex 16.999998995490554 3.4116620991881816e-06 11.900000539475906
    vertex 16.277474057040084 4.002722125381784e-06 6.106994962662429
  endloop
endfacet
facet normal 2.820468473201943e-08 -0.9999999999999893 -1.431057684386451e-07
  outer loop
    vertex -4.000000000000005 5.25133423193278e-17 -7.286735097022977e-17
    vertex 15.06803158795033 4.002722108461985e-06 3.8069949626624293
    vertex 11.931962768109134 4.002722114101919e-06 3.806994962662428
  endloop
endfacet
facet normal 2.820468473201943e-08 -0.9999999999999893 -1.431057684386451e-07
  outer loop
    vertex -4.000000000000005 5.25133423193278e-17 -7.286735097022977e-17
    vertex 11.931962768109134 4.002722114101919e-06 3.806994962662428
    vertex 11.516389357600808 4.002722091542187e-06 4.125875656031927
  endloop
endfacet
facet normal 2.820468473201943e-08 -0.9999999999999893 -1.431057684386451e-07
  outer loop
    vertex -4.000000000000005 5.25133423193278e-17 -7.286735097022977e-17
    vertex 11.516389357600808 4.002722091542187e-06 4.125875656031927
    vertex 11.071142953820742 4.002722091542187e-06 4.706132066604412
  endloop
endfacet
facet normal 2.820468473201943e-08 -0.9999999999999893 -1.431057684386451e-07
  outer loop
    vertex -4.000000000000005 5.25133423193278e-17 -7.286735097022977e-17
    vertex 11.071142953820742 4.002722091542187e-06 4.706132066604412
    vertex 10.791249363446239 4.0027220971821195e-06 5.3818549685078505
  endloop
endfacet
facet normal 2.820468473201943e-08 -0.9999999999999893 -1.431057684386451e-07
  outer loop
    vertex -4.000000000000005 5.25133423193278e-17 -7.286735097022977e-17
    vertex 10.791249363446239 4.0027220971821195e-06 5.3818549685078505
    vertex 10.695782872115274 4.002722100002086e-06 6.106994962662427
  endloop
endfacet
facet normal 2.820468473201943e-08 -0.9999999999999893 -1.431057684386451e-07
  outer loop
    vertex -4.000000000000005 5.25133423193278e-17 -7.286735097022977e-17
    vertex 10.695782872115274 4.002722100002086e-06 6.106994962662427
    vertex 9.999998995437341 3.4050194664384523e-06 11.899999460321082
  endloop
endfacet
facet normal 2.820468473201943e-08 -0.9999999999999893 -1.431057684386451e-07
  outer loop
    vertex -4.000000000000005 5.25133423193278e-17 -7.286735097022977e-17
    vertex 9.999998995437341 3.4050194664384523e-06 11.899999460321082
    vertex -4.000000000000005 5.25133423193278e-17 38.69999999999998
  endloop
endfacet
facet normal 7.888609052210118e-31 -8.778911240185487e-16 -1.0
  outer loop
    vertex 11.931962768109118 3.000038727989757 8.406994962662422
    vertex 15.06803158795033 4.002722116921885e-06 8.406994962662427
    vertex 11.931962768109129 4.002722114101919e-06 8.406994962662427
  endloop
endfacet
facet normal 7.888609052210118e-31 -8.778911240185487e-16 -1.0
  outer loop
    vertex 15.06803158795033 4.002722116921885e-06 8.406994962662427
    vertex 11.931962768109118 3.000038727989757 8.406994962662422
    vertex 15.068031587950307 3.000038727989757 8.406994962662422
  endloop
endfacet
facet normal 0.608761429008731 8.6431430607084895e-16 -0.7933533402912272
  outer loop
    vertex 11.516389357600797 3.0000387279897347 8.08811426929292
    vertex 11.931962768109129 4.002722114101919e-06 8.406994962662427
    vertex 11.516389357600808 4.002722091542187e-06 8.088114269292925
  endloop
endfacet
facet normal 0.608761429008731 8.6431430607084895e-16 -0.7933533402912272
  outer loop
    vertex 11.931962768109129 4.002722114101919e-06 8.406994962662427
    vertex 11.516389357600797 3.0000387279897347 8.08811426929292
    vertex 11.931962768109118 3.000038727989757 8.406994962662422
  endloop
endfacet
facet normal 0.7933533402912347 1.4996376917174276e-15 -0.6087614290087214
  outer loop
    vertex 11.516389357600797 3.0000387279897347 8.08811426929292
    vertex 11.071142953820742 4.002722091542187e-06 7.507857858720443
    vertex 11.07114295382073 3.0000387279897347 7.5078578587204365
  endloop
endfacet
facet normal 0.7933533402912347 1.4996376917174276e-15 -0.6087614290087214
  outer loop
    vertex 11.071142953820742 4.002722091542187e-06 7.507857858720443
    vertex 11.516389357600797 3.0000387279897347 8.08811426929292
    vertex 11.516389357600808 4.002722091542187e-06 8.088114269292925
  endloop
endfacet
facet normal 0.9238795325112895 2.032763246941976e-15 -0.38268343236508306
  outer loop
    vertex 11.07114295382073 3.0000387279897347 7.5078578587204365
    vertex 10.791249363446239 4.0027220971821195e-06 6.832134956817006
    vertex 10.79124936344623 3.00003872798974 6.832134956817001
  endloop
endfacet
facet normal 0.9238795325112895 2.032763246941976e-15 -0.38268343236508306
  outer loop
    vertex 10.791249363446239 4.0027220971821195e-06 6.832134956817006
    vertex 11.07114295382073 3.0000387279897347 7.5078578587204365
    vertex 11.071142953820742 4.002722091542187e-06 7.507857858720443
  endloop
endfacet
facet normal 0.9914448613738095 2.4273593461874926e-15 -0.13052619222005865
  outer loop
    vertex 10.79124936344623 3.00003872798974 6.832134956817001
    vertex 10.695782872115274 4.002722100002086e-06 6.106994962662427
    vertex 10.695782872115265 3.00003872798974 6.106994962662419
  endloop
endfacet
facet normal 0.9914448613738095 2.4273593461874926e-15 -0.13052619222005865
  outer loop
    vertex 10.695782872115274 4.002722100002086e-06 6.106994962662427
    vertex 10.79124936344623 3.00003872798974 6.832134956817001
    vertex 10.791249363446239 4.0027220971821195e-06 6.832134956817006
  endloop
endfacet
facet normal 0.9914448613738095 2.656534917391349e-15 0.130526192220059
  outer loop
    vertex 10.695782872115265 3.00003872798974 6.106994962662419
    vertex 10.791249363446239 4.0027220971821195e-06 5.3818549685078505
    vertex 10.79124936344623 3.00003872798974 5.3818549685078425
  endloop
endfacet
facet normal 0.9914448613738095 2.656534917391349e-15 0.130526192220059
  outer loop
    vertex 10.791249363446239 4.0027220971821195e-06 5.3818549685078505
    vertex 10.695782872115265 3.00003872798974 6.106994962662419
    vertex 10.695782872115274 4.002722100002086e-06 6.106994962662427
  endloop
endfacet
facet normal 0.92387953251129 2.7046720241064946e-15 0.382683432365082
  outer loop
    vertex 10.79124936344623 3.00003872798974 5.3818549685078425
    vertex 11.071142953820742 4.002722091542187e-06 4.706132066604412
    vertex 11.07114295382073 3.0000387279897347 4.706132066604405
  endloop
endfacet
facet normal 0.92387953251129 2.7046720241064946e-15 0.382683432365082
  outer loop
    vertex 11.071142953820742 4.002722091542187e-06 4.706132066604412
    vertex 10.79124936344623 3.00003872798974 5.3818549685078425
    vertex 10.791249363446239 4.0027220971821195e-06 5.3818549685078505
  endloop
endfacet
facet normal 0.793353340291236 2.568490202060638e-15 0.6087614290087195
  outer loop
    vertex 11.07114295382073 3.0000387279897347 4.706132066604405
    vertex 11.516389357600808 4.002722091542187e-06 4.125875656031927
    vertex 11.516389357600797 3.0000387279897347 4.12587565603192
  endloop
endfacet
facet normal 0.793353340291236 2.568490202060638e-15 0.6087614290087195
  outer loop
    vertex 11.516389357600808 4.002722091542187e-06 4.125875656031927
    vertex 11.07114295382073 3.0000387279897347 4.706132066604405
    vertex 11.071142953820742 4.002722091542187e-06 4.706132066604412
  endloop
endfacet
facet normal 0.6087614290087224 2.257270017375104e-15 0.7933533402912338
  outer loop
    vertex 11.931962768109134 4.002722114101919e-06 3.806994962662428
    vertex 11.516389357600797 3.0000387279897347 4.12587565603192
    vertex 11.516389357600808 4.002722091542187e-06 4.125875656031927
  endloop
endfacet
facet normal 0.6087614290087224 2.257270017375104e-15 0.7933533402912338
  outer loop
    vertex 11.516389357600797 3.0000387279897347 4.12587565603192
    vertex 11.931962768109134 4.002722114101919e-06 3.806994962662428
    vertex 11.931962768109123 3.000038727989757 3.8069949626624204
  endloop
endfacet
facet normal -4.496021363923201e-16 8.778911240185475e-16 1.0
  outer loop
    vertex 15.068031587950307 3.0000387279897516 3.8069949626624218
    vertex 11.931962768109134 4.002722114101919e-06 3.806994962662428
    vertex 15.06803158795033 4.002722108461985e-06 3.8069949626624293
  endloop
endfacet
facet normal -4.496021363923201e-16 8.778911240185475e-16 1.0
  outer loop
    vertex 11.931962768109134 4.002722114101919e-06 3.806994962662428
    vertex 15.068031587950307 3.0000387279897516 3.8069949626624218
    vertex 11.931962768109123 3.000038727989757 3.8069949626624204
  endloop
endfacet
facet normal -0.6432868422492375 -9.771756097957854e-16 0.765625259894816
  outer loop
    vertex 15.448758367507894 3.0000387279897516 4.12688582913536
    vertex 15.06803158795033 4.002722108461985e-06 3.8069949626624293
    vertex 15.448758367507917 4.002722108461985e-06 4.126885829135368
  endloop
endfacet
facet normal -0.6432868422492375 -9.771756097957854e-16 0.765625259894816
  outer loop
    vertex 15.06803158795033 4.002722108461985e-06 3.8069949626624293
    vertex 15.448758367507894 3.0000387279897516 4.12688582913536
    vertex 15.068031587950307 3.0000387279897516 3.8069949626624218
  endloop
endfacet
facet normal -0.7560987410690891 -1.364005089170441e-15 0.6544575568772498
  outer loop
    vertex 15.448758367507917 4.002722108461985e-06 4.126885829135368
    vertex 15.736913293350758 3.000038727989757 4.459792943390762
    vertex 15.448758367507894 3.0000387279897516 4.12688582913536
  endloop
endfacet
facet normal -0.7560987410690891 -1.364005089170441e-15 0.6544575568772498
  outer loop
    vertex 15.736913293350758 3.000038727989757 4.459792943390762
    vertex 15.448758367507917 4.002722108461985e-06 4.126885829135368
    vertex 15.73691329335078 4.002722116921885e-06 4.45979294339077
  endloop
endfacet
facet normal -0.8499440672622732 -1.7166187972685822e-15 0.5268729282527852
  outer loop
    vertex 15.73691329335078 4.002722116921885e-06 4.45979294339077
    vertex 15.968893240673399 3.0000387279897347 4.8340197623783085
    vertex 15.736913293350758 3.000038727989757 4.459792943390762
  endloop
endfacet
facet normal -0.8499440672622732 -1.7166187972685822e-15 0.5268729282527852
  outer loop
    vertex 15.968893240673399 3.0000387279897347 4.8340197623783085
    vertex 15.73691329335078 4.002722116921885e-06 4.45979294339077
    vertex 15.968893240673422 4.002722094362153e-06 4.8340197623783165
  endloop
endfacet
facet normal -0.9224687312129064 -2.026171495842081e-15 0.38607180670757446
  outer loop
    vertex 15.968893240673422 4.002722094362153e-06 4.8340197623783165
    vertex 16.138879042904282 3.0000387279897347 5.240178887659635
    vertex 15.968893240673399 3.0000387279897347 4.8340197623783085
  endloop
endfacet
facet normal -0.9224687312129064 -2.026171495842081e-15 0.38607180670757446
  outer loop
    vertex 16.138879042904282 3.0000387279897347 5.240178887659635
    vertex 15.968893240673422 4.002722094362153e-06 4.8340197623783165
    vertex 16.138879042904303 4.002722091542187e-06 5.240178887659643
  endloop
endfacet
facet normal -0.9718534674847207 -2.2848981227101345e-15 0.23558615778081052
  outer loop
    vertex 16.138879042904303 4.002722091542187e-06 5.240178887659643
    vertex 16.242606643130717 3.0000387279897627 5.668081905831533
    vertex 16.138879042904282 3.0000387279897347 5.240178887659635
  endloop
endfacet
facet normal -0.9718534674847207 -2.2848981227101345e-15 0.23558615778081052
  outer loop
    vertex 16.242606643130717 3.0000387279897627 5.668081905831533
    vertex 16.138879042904303 4.002722091542187e-06 5.240178887659643
    vertex 16.24260664313074 4.002722119741852e-06 5.668081905831541
  endloop
endfacet
facet normal -0.9968594706991595 -2.486308576656519e-15 0.07919088127677168
  outer loop
    vertex 16.24260664313074 4.002722119741852e-06 5.668081905831541
    vertex 16.277474057040063 3.0000387279897685 6.106994962662422
    vertex 16.242606643130717 3.0000387279897627 5.668081905831533
  endloop
endfacet
facet normal -0.9968594706991595 -2.486308576656519e-15 0.07919088127677168
  outer loop
    vertex 16.277474057040063 3.0000387279897685 6.106994962662422
    vertex 16.24260664313074 4.002722119741852e-06 5.668081905831541
    vertex 16.277474057040084 4.002722125381784e-06 6.106994962662429
  endloop
endfacet
facet normal -0.9968594706991595 -2.625350520208688e-15 -0.07919088127677218
  outer loop
    vertex 16.277474057040084 4.002722125381784e-06 6.106994962662429
    vertex 16.242606643130717 3.0000387279897627 6.545908019493309
    vertex 16.277474057040063 3.0000387279897685 6.106994962662422
  endloop
endfacet
facet normal -0.9968594706991595 -2.625350520208688e-15 -0.07919088127677218
  outer loop
    vertex 16.242606643130717 3.0000387279897627 6.545908019493309
    vertex 16.277474057040084 4.002722125381784e-06 6.106994962662429
    vertex 16.24260664313074 4.002722119741852e-06 6.545908019493315
  endloop
endfacet
facet normal -0.9718534674847282 -2.6985361164249397e-15 -0.23558615778077935
  outer loop
    vertex 16.24260664313074 4.002722119741852e-06 6.545908019493315
    vertex 16.138879042904293 3.000038727989746 6.973811037665221
    vertex 16.242606643130717 3.0000387279897627 6.545908019493309
  endloop
endfacet
facet normal -0.9718534674847282 -2.6985361164249397e-15 -0.23558615778077935
  outer loop
    vertex 16.138879042904293 3.000038727989746 6.973811037665221
    vertex 16.24260664313074 4.002722119741852e-06 6.545908019493315
    vertex 16.138879042904314 4.002722102822053e-06 6.973811037665227
  endloop
endfacet
facet normal -0.9224687312128884 -2.7040295205268407e-15 -0.38607180670761737
  outer loop
    vertex 16.138879042904314 4.002722102822053e-06 6.973811037665227
    vertex 15.968893240673399 3.0000387279897347 7.379970162946521
    vertex 16.138879042904293 3.000038727989746 6.973811037665221
  endloop
endfacet
facet normal -0.9224687312128884 -2.7040295205268407e-15 -0.38607180670761737
  outer loop
    vertex 15.968893240673399 3.0000387279897347 7.379970162946521
    vertex 16.138879042904314 4.002722102822053e-06 6.973811037665227
    vertex 15.968893240673422 4.002722094362153e-06 7.379970162946527
  endloop
endfacet
facet normal -0.8499440672622802 -2.6416929316661535e-15 -0.5268729282527737
  outer loop
    vertex 15.968893240673422 4.002722094362153e-06 7.379970162946527
    vertex 15.736913293350758 3.000038727989757 7.754196981934079
    vertex 15.968893240673399 3.0000387279897347 7.379970162946521
  endloop
endfacet
facet normal -0.8499440672622802 -2.6416929316661535e-15 -0.5268729282527737
  outer loop
    vertex 15.736913293350758 3.000038727989757 7.754196981934079
    vertex 15.968893240673422 4.002722094362153e-06 7.379970162946527
    vertex 15.73691329335078 4.002722116921885e-06 7.754196981934085
  endloop
endfacet
facet normal -0.7560987410691082 -2.5130900496292748e-15 -0.6544575568772277
  outer loop
    vertex 15.73691329335078 4.002722116921885e-06 7.754196981934085
    vertex 15.448758367507917 3.000038727989757 8.087104096189474
    vertex 15.736913293350758 3.000038727989757 7.754196981934079
  endloop
endfacet
facet normal -0.7560987410691082 -2.5130900496292748e-15 -0.6544575568772277
  outer loop
    vertex 15.448758367507917 3.000038727989757 8.087104096189474
    vertex 15.73691329335078 4.002722116921885e-06 7.754196981934085
    vertex 15.448758367507939 4.002722116921885e-06 8.08710409618948
  endloop
endfacet
facet normal -0.6432868422492243 -2.3214468497678687e-15 -0.7656252598948271
  outer loop
    vertex 15.068031587950307 3.000038727989757 8.406994962662422
    vertex 15.448758367507939 4.002722116921885e-06 8.08710409618948
    vertex 15.06803158795033 4.002722116921885e-06 8.406994962662427
  endloop
endfacet
facet normal -0.6432868422492243 -2.3214468497678687e-15 -0.7656252598948271
  outer loop
    vertex 15.448758367507939 4.002722116921885e-06 8.08710409618948
    vertex 15.068031587950307 3.000038727989757 8.406994962662422
    vertex 15.448758367507917 3.000038727989757 8.087104096189474
  endloop
endfacet
facet normal -0.9999999989885378 -3.677411788975839e-05 2.5895728474162793e-05
  outer loop
    vertex 14.355161722079274 1.501843640653873 37.701949405919706
    vertex 14.354473210165857 3.0009930625739525 27.70017350230899
    vertex 14.354473210165857 1.5009930625739543 27.70017350230899
  endloop
endfacet
facet normal -0.9999999989885378 -3.677411788975839e-05 2.5895728474162793e-05
  outer loop
    vertex 14.354473210165857 3.0009930625739525 27.70017350230899
    vertex 14.355161722079274 1.501843640653873 37.701949405919706
    vertex 14.354022327717011 3.001004591860187 35.60017350237365
  endloop
endfacet
facet normal -0.9999999989885378 -3.677411788975839e-05 2.5895728474162793e-05
  outer loop
    vertex 14.354022327717011 3.001004591860187 35.60017350237365
    vertex 14.355161722079274 1.501843640653873 37.701949405919706
    vertex 14.35395850223414 21.500035800766778 37.699996094144815
  endloop
endfacet
facet normal -0.9999999989885378 -3.677411788975839e-05 2.5895728474162793e-05
  outer loop
    vertex 14.35395850223414 21.500035800766778 37.699996094144815
    vertex 14.353958271859025 21.00003941810793 35.599977798861204
    vertex 14.354022327717011 3.001004591860187 35.60017350237365
  endloop
endfacet
endsolid Case v2
