solid Case v2
facet normal 0.0 0.0 -1.0
  outer loop
    vertex 26.587760712853765 58.2 -1.5349780547438159
    vertex -15.443059287146248 -0.9999999999999999 -1.5349780547438172
    vertex -15.443059287146248 58.2 -1.5349780547438159
  endloop
endfacet
facet normal 0.0 0.0 -1.0
  outer loop
    vertex -15.443059287146248 -0.9999999999999999 -1.5349780547438172
    vertex 26.587760712853765 58.2 -1.5349780547438159
    vertex 26.587760712853765 -0.9999999999999999 -1.5349780547438172
  endloop
endfacet
facet normal -1.0 0.0 0.0
  outer loop
    vertex -15.443059287146248 58.2 0.3837946340631532
    vertex -15.443059287146248 -0.9999999999999999 -1.5349780547438172
    vertex -15.443059287146248 -0.9999999999999999 0.3837946340631521
  endloop
endfacet
facet normal -1.0 0.0 0.0
  outer loop
    vertex -15.443059287146248 -0.9999999999999999 -1.5349780547438172
    vertex -15.443059287146248 58.2 0.3837946340631532
    vertex -15.443059287146248 58.2 -1.5349780547438159
  endloop
endfacet
facet normal 1.0 0.0 0.0
  outer loop
    vertex 26.587760712853765 58.2 -1.5349780547438159
    vertex 26.587760712853765 -0.9999999999999999 0.2430341230743676
    vertex 26.587760712853765 -0.9999999999999999 -1.5349780547438172
  endloop
endfacet
facet normal 1.0 0.0 0.0
  outer loop
    vertex 26.587760712853765 -0.9999999999999999 0.2430341230743676
    vertex 26.587760712853765 58.2 -1.5349780547438159
    vertex 26.587760712853765 58.2 0.24303412307436864
  endloop
endfacet
facet normal -0.42828048464431184 -2.0935603608412332e-16 0.9036458523519231
  outer loop
    vertex -2.612038416483273 -0.9999999999999943 6.465021945256173
    vertex -15.443059287146248 58.2 0.3837946340631532
    vertex -15.443059287146248 -0.9999999999999999 0.3837946340631521
  endloop
endfacet
facet normal -0.42828048464431184 -2.0935603608412332e-16 0.9036458523519231
  outer loop
    vertex -15.443059287146248 58.2 0.3837946340631532
    vertex -2.612038416483273 -0.9999999999999943 6.465021945256173
    vertex -2.6120384164833124 57.399999999999984 6.465021945256175
  endloop
endfacet
facet normal -0.42828048464431184 -2.0935603608412332e-16 0.9036458523519231
  outer loop
    vertex -2.6120384164833124 57.399999999999984 6.465021945256175
    vertex -2.612038416483273 -0.9999999999999943 6.465021945256173
    vertex -2.612038416483273 -0.19999999999999438 6.465021945256173
  endloop
endfacet
facet normal -0.42828048464431184 -2.0935603608412332e-16 0.9036458523519231
  outer loop
    vertex -2.6120384164833124 58.19999999999998 6.465021945256175
    vertex -15.443059287146248 58.2 0.3837946340631532
    vertex -2.6120384164833124 57.399999999999984 6.465021945256175
  endloop
endfacet
facet normal 1.3679828823866513e-18 -1.0 7.580095227764318e-16
  outer loop
    vertex 26.587760712853765 -0.9999999999999999 0.2430341230743676
    vertex -15.443059287146248 -0.9999999999999999 -1.5349780547438172
    vertex 26.587760712853765 -0.9999999999999999 -1.5349780547438172
  endloop
endfacet
facet normal 1.3679828823866513e-18 -1.0 7.580095227764318e-16
  outer loop
    vertex -15.443059287146248 -0.9999999999999999 -1.5349780547438172
    vertex 26.587760712853765 -0.9999999999999999 0.2430341230743676
    vertex -15.443059287146248 -0.9999999999999999 0.3837946340631521
  endloop
endfacet
facet normal 1.3679828823866513e-18 -1.0 7.580095227764318e-16
  outer loop
    vertex -15.443059287146248 -0.9999999999999999 0.3837946340631521
    vertex 26.587760712853765 -0.9999999999999999 0.2430341230743676
    vertex 16.001490823751393 -0.9999999999999943 6.465021945256175
  endloop
endfacet
facet normal 1.3679828823866513e-18 -1.0 7.580095227764318e-16
  outer loop
    vertex -15.443059287146248 -0.9999999999999999 0.3837946340631521
    vertex 16.001490823751393 -0.9999999999999943 6.465021945256175
    vertex -2.612038416483273 -0.9999999999999943 6.465021945256173
  endloop
endfacet
facet normal -4.9990243071586844e-17 1.0 2.2799101266959326e-15
  outer loop
    vertex -15.443059287146248 58.2 0.3837946340631532
    vertex 26.587760712853765 58.2 -1.5349780547438159
    vertex -15.443059287146248 58.2 -1.5349780547438159
  endloop
endfacet
facet normal -4.9990243071586844e-17 1.0 2.2799101266959326e-15
  outer loop
    vertex 26.587760712853765 58.2 -1.5349780547438159
    vertex -15.443059287146248 58.2 0.3837946340631532
    vertex 26.587760712853765 58.2 0.24303412307436864
  endloop
endfacet
facet normal -4.9990243071586844e-17 1.0 2.2799101266959326e-15
  outer loop
    vertex 26.587760712853765 58.2 0.24303412307436864
    vertex -15.443059287146248 58.2 0.3837946340631532
    vertex 16.001490823751393 58.199999999999996 6.465021945256176
  endloop
endfacet
facet normal -4.9990243071586844e-17 1.0 2.2799101266959326e-15
  outer loop
    vertex 16.001490823751393 58.199999999999996 6.465021945256176
    vertex -15.443059287146248 58.2 0.3837946340631532
    vertex -2.6120384164833124 58.19999999999998 6.465021945256175
  endloop
endfacet
facet normal -0.37460659341591174 -2.2338027123568565e-17 0.9271838545667875
  outer loop
    vertex 2.255973186038318e-14 -0.19999999999999438 1.815353423140209e-14
    vertex 16.001490823751393 57.4 6.465021945256176
    vertex -1.127986593019159e-14 57.399999999999984 5.639932965095795e-15
  endloop
endfacet
facet normal -0.37460659341591174 -2.2338027123568565e-17 0.9271838545667875
  outer loop
    vertex 16.001490823751393 57.4 6.465021945256176
    vertex 2.255973186038318e-14 -0.19999999999999438 1.815353423140209e-14
    vertex 16.001490823751393 -0.19999999999999438 6.465021945256175
  endloop
endfacet
facet normal 0.9271838545667881 6.151018510861555e-16 0.3746065934159105
  outer loop
    vertex -1.127986593019159e-14 57.399999999999984 5.639932965095795e-15
    vertex -2.612038416483273 -0.19999999999999438 6.465021945256173
    vertex 2.255973186038318e-14 -0.19999999999999438 1.815353423140209e-14
  endloop
endfacet
facet normal 0.9271838545667881 6.151018510861555e-16 0.3746065934159105
  outer loop
    vertex -2.612038416483273 -0.19999999999999438 6.465021945256173
    vertex -1.127986593019159e-14 57.399999999999984 5.639932965095795e-15
    vertex -2.6120384164833124 57.399999999999984 6.465021945256175
  endloop
endfacet
facet normal 0.5067036789972907 -1.8018820218790638e-17 0.8621202826117771
  outer loop
    vertex 26.587760712853765 -0.9999999999999999 0.2430341230743676
    vertex 16.001490823751393 -0.19999999999999438 6.465021945256175
    vertex 16.001490823751393 -0.9999999999999943 6.465021945256175
  endloop
endfacet
facet normal 0.5067036789972907 -1.8018820218790638e-17 0.8621202826117771
  outer loop
    vertex 16.001490823751393 -0.19999999999999438 6.465021945256175
    vertex 26.587760712853765 -0.9999999999999999 0.2430341230743676
    vertex 16.001490823751393 57.4 6.465021945256176
  endloop
endfacet
facet normal 0.5067036789972907 -1.8018820218790638e-17 0.8621202826117771
  outer loop
    vertex 16.001490823751393 57.4 6.465021945256176
    vertex 26.587760712853765 -0.9999999999999999 0.2430341230743676
    vertex 16.001490823751393 58.199999999999996 6.465021945256176
  endloop
endfacet
facet normal 0.5067036789972907 -1.8018820218790638e-17 0.8621202826117771
  outer loop
    vertex 16.001490823751393 58.199999999999996 6.465021945256176
    vertex 26.587760712853765 -0.9999999999999999 0.2430341230743676
    vertex 26.587760712853765 58.2 0.24303412307436864
  endloop
endfacet
facet normal 6.060036108471688e-16 -1.0 2.448413517330575e-16
  outer loop
    vertex 16.001490823751393 57.4 6.465021945256176
    vertex -2.6120384164833124 57.399999999999984 6.465021945256175
    vertex -1.127986593019159e-14 57.399999999999984 5.639932965095795e-15
  endloop
endfacet
facet normal -7.57504513558961e-17 -8.55618295895257e-33 1.0
  outer loop
    vertex 16.001490823751393 57.4 6.465021945256176
    vertex -2.6120384164833124 58.19999999999998 6.465021945256175
    vertex -2.6120384164833124 57.399999999999984 6.465021945256175
  endloop
endfacet
facet normal -7.57504513558961e-17 -8.55618295895257e-33 1.0
  outer loop
    vertex -2.6120384164833124 58.19999999999998 6.465021945256175
    vertex 16.001490823751393 57.4 6.465021945256176
    vertex 16.001490823751393 58.199999999999996 6.465021945256176
  endloop
endfacet
facet normal 0.0 1.0 0.0
  outer loop
    vertex 16.001490823751393 -0.19999999999999438 6.465021945256175
    vertex 2.255973186038318e-14 -0.19999999999999438 1.815353423140209e-14
    vertex -2.612038416483273 -0.19999999999999438 6.465021945256173
  endloop
endfacet
facet normal -7.575045135589626e-17 0.0 1.0
  outer loop
    vertex 16.001490823751393 -0.9999999999999943 6.465021945256175
    vertex -2.612038416483273 -0.19999999999999438 6.465021945256173
    vertex -2.612038416483273 -0.9999999999999943 6.465021945256173
  endloop
endfacet
facet normal -7.575045135589626e-17 0.0 1.0
  outer loop
    vertex -2.612038416483273 -0.19999999999999438 6.465021945256173
    vertex 16.001490823751393 -0.9999999999999943 6.465021945256175
    vertex 16.001490823751393 -0.19999999999999438 6.465021945256175
  endloop
endfacet
endsolid Case v2
